<?xml version="1.0" encoding="utf-8"?>
<!-- Generator: Adobe Illustrator 18.1.1, SVG Export Plug-In . SVG Version: 6.00 Build 0)  -->
<svg version="1.1" id="图层_1" xmlns="http://www.w3.org/2000/svg" xmlns:xlink="http://www.w3.org/1999/xlink" x="0px" y="0px"
	 viewBox="0 0 841.9 595.3" enable-background="new 0 0 841.9 595.3" xml:space="preserve">
<path fill-rule="evenodd" clip-rule="evenodd" fill="#9F2526" d="M125.1,278.6h595.3c7.8,0,14.2,6.4,14.2,14.2v155.9
	c0,7.8-6.4,14.2-14.2,14.2H125.1c-7.8,0-14.2-6.4-14.2-14.2V292.8C110.9,285,117.3,278.6,125.1,278.6z"/>
<path fill="none" stroke="#000000" stroke-width="0.5669" stroke-miterlimit="22.9256" d="M125.1,278.6h595.3
	c7.8,0,14.2,6.4,14.2,14.2v155.9c0,7.8-6.4,14.2-14.2,14.2H125.1c-7.8,0-14.2-6.4-14.2-14.2V292.8
	C110.9,285,117.3,278.6,125.1,278.6z"/>
<path fill="#F0DACB" d="M485,239.7L485,239.7C485,239.7,485,239.7,485,239.7C485,239.7,485,239.7,485,239.7
	C485,239.7,485,239.7,485,239.7 M482.9,248.7L482.9,248.7c0,0,0-0.1,0-0.1C483,248.6,483,248.6,482.9,248.7
	C483,248.6,482.9,248.7,482.9,248.7z M482.8,249.4L482.8,249.4c0,0,0-0.1,0-0.1C482.8,249.3,482.8,249.3,482.8,249.4
	C482.8,249.4,482.8,249.4,482.8,249.4z M482.5,250.8L482.5,250.8C482.5,250.8,482.5,250.8,482.5,250.8c0.1-0.3,0.1-0.5,0.2-0.8
	C482.8,250.3,482.6,250.6,482.5,250.8z M482.3,251.9L482.3,251.9c0,0,0-0.1,0-0.1C482.3,251.8,482.3,251.8,482.3,251.9
	C482.3,251.9,482.3,251.9,482.3,251.9z M482.1,252.6L482.1,252.6C482.1,252.6,482.1,252.6,482.1,252.6c0-0.1,0-0.1,0-0.1
	C482.2,252.4,482.2,252.4,482.1,252.6C482.2,252.5,482.1,252.5,482.1,252.6z M482,253.1L482,253.1c0,0,0-0.1,0-0.1
	C482,252.9,482,252.9,482,253.1C482,253,482,253,482,253.1z M481.9,253.6L481.9,253.6c0,0,0-0.1,0-0.1
	C481.9,253.4,481.9,253.4,481.9,253.6C481.9,253.5,481.9,253.5,481.9,253.6z M481.7,254L481.7,254c0,0,0-0.1,0-0.1
	C481.8,253.9,481.8,254,481.7,254C481.8,254,481.8,254,481.7,254z M481.5,254.9L481.5,254.9C481.5,254.9,481.5,254.9,481.5,254.9
	C481.5,254.9,481.5,254.9,481.5,254.9C481.5,254.9,481.5,254.9,481.5,254.9z M481.3,255.4L481.3,255.4
	C481.4,255.4,481.4,255.4,481.3,255.4C481.4,255.4,481.4,255.4,481.3,255.4C481.4,255.4,481.4,255.4,481.3,255.4z M481.2,255.8
	L481.2,255.8C481.2,255.8,481.2,255.8,481.2,255.8C481.2,255.8,481.2,255.8,481.2,255.8L481.2,255.8z M481.1,256.3L481.1,256.3
	c0,0,0-0.1,0-0.1C481.1,256.2,481.1,256.2,481.1,256.3C481.1,256.2,481.1,256.3,481.1,256.3z M481,256.7L481,256.7
	C481,256.7,481,256.7,481,256.7C481,256.7,481,256.7,481,256.7C481,256.7,481,256.7,481,256.7z M480.7,257.6L480.7,257.6
	c0-0.1,0.1-0.2,0.1-0.3C480.8,257.4,480.7,257.5,480.7,257.6z M480.5,258L480.5,258c0-0.1,0.1-0.2,0.1-0.2
	C480.6,257.8,480.6,257.9,480.5,258z M480.4,258.3L480.4,258.3c0-0.1,0-0.1,0.1-0.2C480.5,258.2,480.5,258.3,480.4,258.3z
	 M480.3,258.7L480.3,258.7c0-0.1,0-0.1,0.1-0.2C480.4,258.6,480.3,258.7,480.3,258.7z M363.4,262.7L363.4,262.7c0,0-0.1-0.1-0.1-0.1
	C363.4,262.6,363.4,262.6,363.4,262.7C363.4,262.6,363.4,262.6,363.4,262.7C363.4,262.7,363.4,262.7,363.4,262.7z M363.2,262.2
	L363.2,262.2C363.2,262.2,363.2,262.2,363.2,262.2C363.3,262.2,363.3,262.2,363.2,262.2C363.3,262.3,363.2,262.3,363.2,262.2
	C363.2,262.3,363.2,262.2,363.2,262.2z M480.9,257L480.9,257c0,0.1,0,0.1-0.1,0.2C480.8,257.2,480.8,257.1,480.9,257z M352.3,252.7
	L352.3,252.7c0.5,0.1,0.9,0.3,1.4,0.4C353.2,253.2,352.7,253.1,352.3,252.7z M351.8,252.4L351.8,252.4c0.2,0,0.4,0,0.5,0.3
	C352.1,252.7,351.9,252.7,351.8,252.4z M351.6,252.3L351.6,252.3C351.6,252.3,351.6,252.2,351.6,252.3c0.2,0,0.2,0.1,0.2,0.2
	C351.7,252.4,351.6,252.4,351.6,252.3z M353.2,242.1L353.2,242.1c-0.7-0.2-1.3-0.2-2-0.1C351.9,241.7,352.6,241.7,353.2,242.1z
	 M350.6,251.2L350.6,251.2c-0.1,0-0.1-0.1-0.2-0.2C350.5,251.1,350.6,251.1,350.6,251.2C350.6,251.2,350.6,251.2,350.6,251.2z
	 M350.2,250.8L350.2,250.8C350.2,250.8,350.3,250.7,350.2,250.8c0.2,0,0.2,0.2,0.2,0.3C350.3,251,350.2,250.9,350.2,250.8z
	 M350.1,242.9L350.1,242.9c-0.1,0-0.1,0-0.1-0.1c0-0.2,0.2-0.2,0.3-0.2C350.3,242.7,350.3,242.8,350.1,242.9z M349.6,249.3
	L349.6,249.3c-0.8-1.4-0.8-5.2,0.4-6.3C349,245.1,349.2,247.2,349.6,249.3z M349.8,250L349.8,250c-0.1-0.1-0.1-0.1-0.1-0.2
	c0,0,0-0.1,0.1-0.1c0.1,0.1,0.1,0.1,0.2,0.2C349.9,249.9,349.9,249.9,349.8,250z M350.9,242.2L350.9,242.2c-0.1,0.2-0.3,0.4-0.5,0.4
	C350.4,242.2,350.6,242.2,350.9,242.2z M498,241.1c-0.8-3-2.1-5.8-4.3-8.1c-0.9-1-1.8-0.9-2.8-0.2c-1.7,1.2-3.1,2.6-4.3,4.3
	c-0.4,0.6-0.9,1.3-1.3,2c0-0.4,0.1-0.8,0.1-1.2c0-2.4-0.3-4.8-0.8-7.1c-0.2-0.8-0.2-1.6-0.8-2.3c-1.4-1.8-2.6-3.6-4-5.4
	c-2.5-3.3-4.9-6.7-8.1-9.3c-0.9-0.8-1.9-1.5-3.2-1.9c-2.1-0.6-4.1-1.3-6-2.1c-2.7-1.1-5.5-2.2-8.2-3.2c-0.4-0.1-0.7-0.2-1.1-0.2
	c-4.7,0.9-9.3,2.2-13.9,3.8c-0.5,0.2-0.6,0.3-0.5,0.9c1,2.8,1.5,5.7,1.3,8.7c-0.2,2.5-1,4.9-2.4,7c-1.2,1.8-2.7,3.2-4.6,4.3
	c-0.4,0.2-0.6,0.5-0.7,1c-0.2,1-0.5,2.1-1.2,2.9c-1.4,1.9-3.4,3-5.6,3.8c-0.7,0.2-0.9,0.6-1,1.2c-0.3,1.5-0.7,3-0.7,4.5
	c0,0.5-0.3,0.6-0.7,0.3c-0.3-0.2-0.6-0.4-0.8-0.5c-3.4-2.1-6.6-4.5-9.2-7.5c-0.1-0.2-0.3-0.3-0.5-0.3c-3.6-1.4-7.1-3-10.1-5.4
	c-2.1-1.6-3.9-3.5-5.1-5.9c-1.5-2.9-2.1-6-1.8-9.3c0.2-2.1,0.5-4.1,1-6.1c0.3-1.2,0.3-1.2-0.9-1.6c-3.7-1.3-7.5-2.6-11.3-3.7
	c-2.4-0.7-4.7-1.5-7.1-2.2c-0.7-0.2-2.3,0.3-2.6,0.9c-0.5,0.8-1,1.5-1.5,2.3c-2.4,4.4-3.7,9.1-4.8,13.9c-0.5,2.1-0.8,4.2-1.1,6.3
	c-0.2,1.5-0.4,3.1-0.5,4.6c-0.1,1.1-0.1,2.2-0.1,3.2c0,0.2,0,0.4-0.2,0.4c-0.2,0-0.4-0.1-0.4-0.3c-0.1-0.3-0.2-0.6-0.3-0.8
	c-0.9-3.1-1.7-6.2-2.6-9.3c-0.5-1.7-1.2-3.3-1.8-4.9c-0.2-0.5-0.3-1.1-0.5-1.7c-0.8,2.5-1.2,5-1.2,7.4c-0.1,2.9-0.7,5.8-1.3,8.6
	c-0.5,2.2-0.8,4.5-0.5,6.8c0.1,0.4,0.3,0.8,0.1,1.2c-0.4-1.5-1-3-1.8-4.4c-1.3-2.3-3-4.3-5.3-5.9c-0.6-0.4-1.3-0.5-1.9,0
	c-1.5,1.1-2.5,2.6-3.4,4.2c-1.8,3.2-2.5,6.6-2.4,10.3c0,1.8,0.3,3.6,0.8,5.4c0.6,2.2,1.6,4.1,3.5,5.5c2.7,1.9,5.4,3.8,8.3,5.4
	c1.9,1.1,3.9,1.8,6,2.4c1,0.3,1.5-0.1,1.7-1c0,0.1,0.1,0.1,0.1,0.2c4.1,9.7,10.4,18.5,18.1,23.2c2.7,1.7,26.9,11.6,38.6,11.3
	c11.7,0.6,36.2-8.6,38.9-10.2c9.4-5.4,16.9-16.7,21-28.4c0,0.6-2.5,7.1-2.1,7.3c1.7,0.8,7.3-2.8,8.3-4.2c0.4-0.5,1,0.2,1.5-0.1
	c1.9-1.1,3.8-2.4,5.7-3.6c1.4-0.9,2.4-2.1,3.1-3.5c1.1-2.3,1.6-4.7,1.8-7.3C498.8,245.3,498.5,243.2,498,241.1z"/>
<path fill="#F6C7B5" d="M385.2,197.4c0,0-13.7,24.3-14.4,32.1c-0.7,7.8-0.7,10.1-0.7,10.1s-7.4-4.6-8-7.2
	c-0.6-2.6-1.1-11.8-1.1-11.8c-2.1,12.9-3,20.1-3,20.1c0,0.8-2.5-29.8-2.5-29.8l12.6-20.2L385.2,197.4z"/>
<path fill="#F6C7B5" d="M358.1,246.2c8.6,31,18.3,36.7,23.6,40c2.7,1.7,26.9,11.6,38.6,11.3c11.7,0.6,36.2-8.6,38.9-10.2
	c4.1-2.3,7.8-5.8,11-9.9c-13.9,6-30.3,14.1-47,14C402.6,291.2,384.6,284.3,358.1,246.2"/>
<path fill="#B7B6B6" d="M516.1,209.3c0.7-0.1,1.3-0.5,1.9-0.6c0,0,0,0.1,0,0.1c-1.5,2-2.8,4.1-4.3,6.1c-2.2,3.2-4.6,6.3-7.4,9
	c-3.8,3.6-8.1,6.5-13.3,7.9c-0.3,0.1-0.5,0.1-0.8,0.2c-0.7,0.3-0.7,0-0.7-0.6c0.1-1.5-0.2-2.9-0.5-4.3c-0.2-0.7-0.2-0.7,0.6-0.7
	c0.1-0.1,0.3-0.2,0.4-0.2c1.1-0.3,2.2-0.4,3.1-1.1c1.8-1,3-2.8,4.4-4.3c1.9-2,3.9-3.9,6.1-5.6c2.4-1.9,5.1-3.5,7.8-4.8
	c0.5-0.2,0.9-0.5,1.4-0.8C515.3,209.4,515.7,209.3,516.1,209.3"/>
<path fill="#D2D3D0" d="M516.1,209.3c-2.8,1.3-5.6,2.8-8.2,4.5c-2.9,1.9-5.4,4.2-7.8,6.6c-0.9,1-1.8,2-2.6,3
	c-0.6,0.7-1.4,1.2-2.2,1.7c-1,0.6-2.1,0.8-3.2,1.1c-0.1,0.1-0.3,0.1-0.4,0.1c-0.6-0.3-1.2,0-1.7,0c-1.7,0.2-3.5,0-5.2,0.1
	c-1.3,0-1.3,0-1.7-1.2c-1.2-3.4-2.6-6.6-4.8-9.5c-0.6-0.8-1.3-1.6-2-2.4c-0.1-0.1-0.4-0.5-0.5-0.6c0.1-0.3,2.8-0.5,3.8-1
	c0.5-0.5,1.2-0.8,1.6-1.4c0.8-1.1,0.7-2.6-0.4-3.4c-0.2-0.2-0.4-0.3-0.6-0.5c-0.4-0.5-1-0.6-1.6-0.9c-0.2-0.1-0.4-0.5-0.7-0.1
	c-0.2,0.2-0.7,0-1.1-0.1c-3.8-0.4-7.6-0.4-11.4-0.3c-1.7,0-3.3,0.2-5,0.3c-0.1,0-0.3,0.1-0.4,0.1c-0.7,0.3-1.5,0.3-2.2,0.4
	c-0.5,0.1-1.1,0.1-1.6,0.2c-0.2,0-0.5,0.1-0.7-0.1c-0.7-0.3-1.4,0.1-2,0.2c-4.3,0.8-8.5,1.8-12.6,3.2c-4.9,1.7-9.6,3.7-14.1,6.3
	c-1.4,0.8-2.7,1.6-4.1,2.4c-0.3,0.2-0.6,0.2-0.9,0.1c-5.8-2.4-11.6-4.7-17.5-6.9c-5.7-2.1-11.5-4.1-17.3-6c-3.7-1.2-7.3-2.4-11-3.4
	c-0.2,0-0.3-0.2-0.5,0c-0.1,0.1-0.2,0.1-0.3,0c-0.9-0.3-1.8-0.7-2.8-0.6c-1.9-0.2-3.7-0.6-5.6-0.6c-2.4,0.1-4.8,0.5-6.9,1.8
	c-1.9,1.1-3.2,2.6-4.3,4.4c-0.9,1.6-1.8,3.3-3,4.8c-0.7,0.9-1.7,1.4-2.6,2c-0.1,0.1-0.2,0.1-0.3,0c-0.9,0.3-1.7,0.6-2.6,0.4
	c-0.2,0-0.3,0.2-0.4,0.3c-0.8,0.9-1.5,2-2.1,3c-0.1,0.2-0.1,0.5-0.4,0.4c-0.2-0.1-0.1-0.4-0.1-0.6c0.1-2.5,0-4.9,0.5-7.4
	c0-0.1,0-0.2,0-0.4c-0.3,0.9-0.4,1.8-0.5,2.6c-0.1,1.9-0.3,3.9-0.2,5.8c0,1-0.6,1.7-0.9,2.6c-0.1,0.2-0.2,0.2-0.4,0.1
	c-0.2-0.1-0.4-0.1-0.5,0c-0.5,0.2-0.9,0-1.3-0.3c-0.1-0.1,0.1-0.1,0-0.1c-3.5-0.8-6.8-2.1-10.1-3.4c-0.6-0.2-1.2-0.6-1.9-0.7
	c-1.2-0.3-2.2-0.9-3.3-1.4c-2.8-1.3-5.6-2.8-8.3-4.4c-0.3-0.2-0.7-0.2-0.7-0.6c0-0.2,0.1-0.4,0.4-0.4c3.7-1.2,7.2-2.5,10.8-4
	c3.6-1.6,7.2-3.3,10.7-5.1c3.9-2.1,7.8-4.4,11.5-6.9c3.3-2.2,6.5-4.5,9.5-7c3.3-2.7,6.7-5.4,10-8.1c3.7-3.1,7.6-6,11.6-8.6
	c4.3-2.7,8.8-5,13.7-6.6c0.5-0.1,0.9-0.3,1.4-0.4c-0.2-0.1-0.4-0.1-0.5,0c-0.3,0.2-0.5,0-0.8,0c-0.5,0-0.5-0.4-0.7-0.6
	c-2.4-3.7-4.9-7.3-6.8-11.2c-0.8-1.7-1.4-3.4-1.3-5.3c0-2.1,0.8-3.9,2-5.6c2.3-3,5.4-4.9,8.9-6.2c2.7-1,5.6-1.5,8.5-1.8
	c2.8-0.3,5.7-0.4,8.5-0.5c2.2-0.1,4.4-0.1,6.5,0c4.3,0.2,8.6,0.6,12.7,2c3.9,1.3,7.2,3.5,9.9,6.6c2.5,2.8,4.1,6.1,4.6,9.9
	c0.3,3-0.3,5.8-1.8,8.4c-0.9,1.6-2,3-3.4,4.2c-0.1,0.1-0.2,0.5-0.5,0.1c0,0-0.1-0.1-0.1,0c-0.1,0.7-0.7,0.3-1.1,0.4
	c-0.7,0.2-1.5,0.2-2.1,0.5c-0.4,0.1-0.9,0.3-1.3,0.4c0.4-0.1,0.9-0.3,1.3-0.4c0.9,0,1.7-0.3,2.6-0.4c1.7-0.1,3.5-0.1,5.2,0
	c2.8,0.3,5.5,1,8.1,2c3.8,1.4,7.5,3.2,11,5.1c2.5,1.4,4.9,2.8,7.2,4.4c2.9,2,5.7,4.2,8.4,6.5c3.2,2.8,6.2,5.7,9.2,8.6
	c2.3,2.2,4.5,4.4,6.9,6.5c3.2,2.9,6.6,5.6,10.4,7.9c3.1,1.9,6.4,3.4,10,4.2c0.1,0,0.3,0.1,0.5,0.2
	C517.3,208.9,516.6,208.9,516.1,209.3"/>
<path fill="#B7B6B6" d="M455.7,206c1.3-0.2,4.1-0.7,4.3-0.7c1.2,0,2.3-0.2,3.5-0.2c3.4-0.2,6.8-0.2,10.2,0c1.1,0.1,2.2,0.2,3.3,0.3
	c1.2,0.1,2.3,0.2,3.3,1c0.2,0.1,0.3,0.2,0.5,0.4c1.5,1.1,1.5,3.2,0,4.3c-0.4,0.3-0.7,0.5-1.1,0.8c-0.9,0.4-1.8,0.7-2.8,0.9
	c-0.2,0-1.1,0.1-1.1,0.1c-3.6,0.2-7-0.8-10.3-2c-3.8-1.4-7.5-2.9-11.2-4.3c0,0-0.1,0-0.2-0.1C454.6,206.1,455.1,206,455.7,206"/>
<path fill="#B7B6B6" d="M316.6,209.6c1.6,1.1,3.3,2,5,2.8c2.4,1.3,4.8,2.5,7.3,3.5c0.8,0.1,1.6,0.6,2.3,0.9c3,1.2,6.1,2.3,9.3,3.2
	c0.1,0,0.3,0.1,0.4,0.2c0.4,0.2,0.9,0.3,1.3,0.4c0.6,0,0.8,0.2,0.6,0.8c-0.7,1.8-1,3.7-0.8,5.6c0,0.6-0.2,0.6-0.7,0.5
	c-1.4-0.3-2.7-0.8-3.9-1.4c-4.1-2-7.9-4.5-11.6-7.1c-2.3-1.6-4.6-3.2-6.8-4.9c-1.2-0.9-2.3-2.1-2.6-3.7c-0.1-0.3-0.1-0.5,0-0.7
	C316.3,209.5,316.4,209.5,316.6,209.6"/>
<path fill="#B7B6B6" d="M375.4,201.8c0.1,0.1,0.2,0.1,0.3,0.1c0.2,0.1,0.5,0.1,0.7,0.2c0,0.2-0.2,0.2-0.3,0.2
	c-2.4,0.6-4.5,1.8-6.6,3.1c-3.2,2-6.5,3.9-9.9,5.6c-2.8,1.3-5.7,2.3-8.8,2.8c-0.3,0-0.6,0.1-0.9,0.1c-0.4,0-0.2-0.2-0.1-0.3
	c2.5-1.1,3.8-3.3,5.1-5.5c0.8-1.5,1.7-3,2.9-4.2c1.7-1.7,3.8-2.5,6.1-3c2.6-0.6,5.2-0.4,7.8,0.1c0.3,0.1,0.7-0.1,1,0.2
	C373.6,201.1,374.5,201.5,375.4,201.8"/>
<path fill="#FFFFFF" d="M492.1,226.2C492.1,226.2,492.1,226.2,492.1,226.2c-0.1,0-0.2-0.1-0.1-0.1c0.7-0.1,1.4-0.3,2-0.5
	c0.4-0.2,0.9-0.3,1.3-0.5C494.4,225.9,493.3,226,492.1,226.2"/>
<path fill="#F0F0F0" d="M435.2,167.9c-0.3-0.1-0.6-0.2-1-0.4c-2-0.9-4.1-1.3-6.2-1.5c-1.5-0.2-3-0.3-4.5-0.3
	c-4.8,0.1-9.4,0.9-13.8,2.6c-1.5,0.6-2.9,1.3-4.4,2c-0.1-0.2,0-0.2,0.1-0.2c2.8-1.4,5.7-2.6,8.7-3.3c2.3-0.6,4.6-1,6.9-1.1
	c4.3-0.3,8.5-0.1,12.6,1.4C434.2,167.2,434.8,167.4,435.2,167.9"/>
<path fill="#F1F1F0" d="M477.2,205.4c-1.5-0.1-3-0.2-4.5-0.3c-2.3-0.1-4.6-0.2-6.8,0c-0.8,0.1-1.6,0-2.5,0.1
	c-0.9,0.1-1.9,0.1-2.8,0.2c-0.2,0-0.4,0.1-0.6-0.1c1.2-0.2,2.3-0.3,3.5-0.3c3.1-0.2,6.3-0.1,9.4-0.1c1.3,0,2.6,0.2,3.9,0.3
	c0.1,0,0.2,0.1,0.4,0.1C477.2,205.3,477.2,205.3,477.2,205.4C477.2,205.4,477.2,205.4,477.2,205.4"/>
<path fill="#EEEDEE" d="M341,220.1c-2.3-0.6-4.5-1.3-6.7-2.1c-1.8-0.6-3.5-1.4-5.3-2.1c0.1-0.2,0.2-0.1,0.4,0
	c3.7,1.6,7.6,3,11.5,4.1c0.1,0,0.2,0.1,0.3,0.1c0,0,0,0,0,0C341,220.1,341,220.1,341,220.1"/>
<path fill="#F1F1F0" d="M356.5,197.2c-2.6,2.5-5.3,5.1-7.9,7.6c0,0,0.1,0.1,0.1,0.1c2.6-2.6,5.3-5.1,7.9-7.7
	C356.6,197.3,356.5,197.2,356.5,197.2"/>
<path fill="#FFFFFF" d="M375.4,201.8c-0.9-0.2-1.9-0.4-2.8-0.7c0.3-0.3,0.5,0,0.8,0c0.7,0.2,1.4,0.4,2,0.5
	C375.4,201.7,375.4,201.7,375.4,201.8C375.4,201.7,375.4,201.7,375.4,201.8"/>
<path fill="#FFFFFF" d="M438.5,163.4c-0.4,0.3-0.9,0.3-1.4,0.4C437.6,163.7,438,163.4,438.5,163.4L438.5,163.4z"/>
<path fill="#5E4137" d="M428.2,231.2L428.2,231.2c0,0.1-0.1,0.1-0.1,0.1c0,0,0.1,0,0.1,0c0,0,0.1-0.1,0.1-0.1
	C428.2,231.3,428.2,231.3,428.2,231.2 M427.7,232L427.7,232c0,0,0.1,0,0.1,0.1c0.1-0.1,0.2-0.3,0.3-0.4c0,0-0.1,0-0.1-0.1
	C427.9,231.7,427.8,231.9,427.7,232z M405.7,220.1L405.7,220.1C405.7,220.1,405.7,220.1,405.7,220.1c0.1-0.6,0.1-1.3,0.1-1.9
	c0,0,0,0-0.1,0C405.7,218.8,405.7,219.4,405.7,220.1z M408.8,230.5L408.8,230.5c0,0-0.1,0-0.1,0.1c0.2,0.4,0.4,0.7,0.6,1.1
	c0,0,0.1,0,0.1-0.1C409.2,231.3,409,230.9,408.8,230.5z M432.6,229.9L432.6,229.9c0.2-0.7,0.2-1.5,0-2.2
	C432.6,228.5,432.6,229.2,432.6,229.9z M427.6,232.2L427.6,232.2c-0.9,1.5-1.8,3.1-2.2,4.8C426.1,235.4,426.8,233.8,427.6,232.2z
	 M423.5,244.9c-1-0.6-1.9-1.3-2.9-1.9c-2.9-1.9-5.5-4.1-7.8-6.7c-0.2-0.2-0.3-0.5-0.6-0.2c0,0-0.2,0-0.2-0.1
	c-4.2-1.7-8.2-3.7-11.4-6.9c-3.6-3.6-5.1-7.9-4.9-12.9c0.1-2.4,0.6-4.7,1.1-7c0.1-0.5,0.4-0.4,0.7-0.3c5.5,1.9,10.9,4,16.3,6.1
	c2.6,1.1,5.3,2.1,7.9,3.2c0.5,0.2,0.8,0.3,1.3-0.1c2.4-1.6,5-3,7.6-4.3c2.4-1.2,4.8-2.2,7.3-3.2c0.3-0.1,0.5-0.2,0.7,0.3
	c1,2.9,1.6,5.9,1.3,9c-0.5,4.8-2.8,8.4-6.9,10.9c-0.5,0.3-0.7,0.6-0.8,1.1c-0.5,2.2-1.7,4-3.6,5.2c-1.2,0.7-2.3,1.4-3.7,1.7
	c-0.3,0.1-0.3,0.3-0.3,0.5c-0.4,1.6-0.7,3.2-0.9,4.8c0,0.3-0.1,0.5-0.1,0.8C423.6,244.9,423.6,244.9,423.5,244.9z"/>
<path fill="#604238" d="M363.8,209.8L363.8,209.8c-0.2,0.2-0.4,0.4-0.3,0.6C363.6,210.3,363.7,210.1,363.8,209.8 M346.6,228.2
	L346.6,228.2C346.6,228.2,346.6,228.2,346.6,228.2c-0.1,0.6-0.1,1.3-0.1,1.9c0,0,0,0,0.1,0C346.6,229.5,346.6,228.9,346.6,228.2z
	 M350.8,227.2L350.8,227.2c-0.5,0.8-1.1,1.5-1.2,2.4C350,228.9,350.4,228,350.8,227.2z M361.3,214.9L361.3,214.9
	c0.6-1.4,1.2-2.9,2-4.3C362.5,211.9,361.8,213.4,361.3,214.9z M351.2,226.6L351.2,226.6c-0.3,0-0.3,0.3-0.4,0.6
	C351.1,226.9,351.2,226.8,351.2,226.6c0.1,0,0.1-0.1,0.1-0.2c0,0-0.1,0-0.1,0C351.2,226.4,351.2,226.5,351.2,226.6z M354.2,223.2
	L354.2,223.2c0.1,0,0.1,0,0.1-0.1c0,0,0.1,0,0.1-0.1c0,0,0,0-0.1,0c-0.1,0-0.1,0.1,0,0.1C354.2,223.1,354.1,223.1,354.2,223.2
	c0,0-0.1,0-0.1,0c0,0,0,0,0,0.1C354.1,223.3,354.1,223.2,354.2,223.2z M353.1,224.1L353.1,224.1c0,0,0.1,0,0.1,0c0-0.1,0-0.1,0-0.2
	c0.1,0.1,0.2,0,0.1-0.1c0.1,0,0.2,0,0.1-0.1c0.1,0,0.2,0,0.1-0.1c0.1,0,0.2,0,0.1-0.1c0,0.1,0.1,0.1,0.1,0c0,0,0,0,0-0.1
	c0,0-0.1,0-0.1,0.1c0,0-0.1,0.1-0.1,0.1c0,0-0.1,0.1-0.1,0.1c-0.1,0-0.1,0-0.1,0.1c0,0-0.1,0.1-0.1,0.1
	C353.2,224,353.2,224,353.1,224.1c0,0,0,0.1,0,0.1c0,0,0,0,0.1,0C353.2,224.2,353.2,224.1,353.1,224.1z M352.9,224.5L352.9,224.5
	c0,0,0.1-0.1,0.1-0.1c0,0,0,0-0.1,0C352.8,224.4,352.8,224.4,352.9,224.5c-0.1,0-0.1,0-0.1,0.1c-0.1-0.1-0.1,0-0.2,0.1
	c0,0,0,0,0.1,0.1c0,0,0-0.1,0.1-0.1C352.8,224.6,352.9,224.5,352.9,224.5z M345.2,235c-1.8-2.1-2.8-4.4-3.1-7
	c-0.6-5.2,1.6-9.6,4.7-13.6c0.1-0.1,0.2-0.3,0.4-0.3c6.1,0,11.4-2.3,16.6-5.2c0.1-0.1,0.2-0.1,0.3-0.1c0,0,0.1,0,0.2,0
	c0,0.4-0.4,0.6-0.5,1.1c0.3-0.4,0.6-0.6,0.7-1c0.2-0.6,0.6-0.7,1-1c2-1.2,4-2.4,6.1-3.6c0.9-0.5,1.9-1,2.8-1.3c0.2,0.2,0,0.3,0,0.3
	c-2.6,3.7-4,7.9-5.2,12.2c-1.6,5.8-2.6,11.8-2.7,17.8c0,0.1,0,0.2,0,0.4c-0.3-0.2-0.4-0.4-0.4-0.7c-0.9-3.1-1.7-6.2-2.6-9.3
	c-0.3-1.2-0.9-2.4-1.3-3.6c-0.4-1.1-0.8-2.3-1.1-3.5c0-0.2-0.1-0.3-0.2-0.6c-0.4,1.2-0.6,2.4-0.9,3.5c-0.4,2.1-0.5,4.3-0.6,6.5
	c-0.1,2.2-0.7,4.4-1.2,6.6c-0.4,1.8-0.7,3.6-0.6,5.4c0,0.2,0.1,0.3-0.1,0.5c-0.3-0.1-0.3-0.4-0.4-0.7c-1.3-2.9-3.2-5.4-5.8-7.3
	c-0.2-0.1-0.3-0.2-0.5-0.4c-0.9-0.5-1.4-0.5-2.2,0.2c-0.4,0.3-0.7,0.7-1.1,1.1c-0.5,0.4-0.8,1-1.2,1.5
	C346,233.7,345.7,234.3,345.2,235z"/>
<path fill="#604238" d="M470.4,212.4c0.8,0.1,1.7,0.2,2.5,0.4c0.6,0.1,1.2,0.2,1.8,0.1c0.7-0.1,1.2,0.2,1.7,0.7
	c2.3,2.3,3.8,5,5.1,7.9c0.7,1.6,1.4,3.2,1.9,4.9c0.1,0.3,0.2,0.4,0.5,0.3c2.2-0.1,4.4,0,6.5-0.2c0.3,0,0.4,0.1,0.5,0.4
	c0.4,1.6,0.6,3.3,0.5,5c0,0.2-0.1,0.4-0.3,0.6c-2.3,1.5-4.1,3.5-5.5,5.8c0,0.1-0.1,0.1-0.3,0.3c0-1.2,0-2.2-0.1-3.2
	c-0.2-2.4-0.7-4.8-1.3-7.1c0-0.2,0-0.4-0.3-0.1c-0.1,0.1-0.3-0.2-0.4-0.4c-1.7-2.3-3.3-4.5-5-6.8c-2.1-2.7-4.2-5.4-6.9-7.6
	c-0.4-0.3-0.7-0.6-1.1-0.8C470.4,212.5,470.4,212.5,470.4,212.4"/>
<path fill="#604238" d="M364.3,208.7C364.3,208.7,364.4,208.7,364.3,208.7C364.4,208.7,364.4,208.7,364.3,208.7
	C364.4,208.8,364.3,208.8,364.3,208.7C364.3,208.7,364.3,208.7,364.3,208.7"/>
<path fill="#FFFFFF" d="M349.6,249.3c-0.8-1.4-0.8-5.2,0.4-6.3C349,245.1,349.2,247.2,349.6,249.3"/>
<path fill="#FFFFFF" d="M353.2,242.1c-0.7-0.2-1.3-0.2-2-0.1C351.9,241.7,352.6,241.7,353.2,242.1"/>
<path fill="#FFFFFF" d="M350.3,242.6c0-0.3,0.2-0.4,0.5-0.4l0,0C350.7,242.4,350.6,242.5,350.3,242.6L350.3,242.6z"/>
<path fill="#FFFFFF" d="M350.3,242.6c0,0.1,0,0.3-0.2,0.3c-0.1,0-0.1,0-0.1-0.1C350.1,242.6,350.2,242.6,350.3,242.6L350.3,242.6z"
	/>
<path fill="#FFFFFF" d="M483,248.6C482.9,248.6,482.9,248.7,483,248.6c-0.1,0.1-0.1,0-0.1,0S482.9,248.5,483,248.6
	C482.9,248.5,482.9,248.6,483,248.6"/>
<path fill="#FFFFFF" d="M485,239.7C485,239.7,485,239.7,485,239.7C485,239.7,485,239.7,485,239.7C485,239.7,485,239.7,485,239.7"/>
<path fill="#FFFFFF" d="M353.7,242.4C353.7,242.5,353.7,242.5,353.7,242.4C353.7,242.5,353.7,242.5,353.7,242.4L353.7,242.4z"/>
<path fill="#FFFFFF" d="M353.5,242.3C353.5,242.3,353.5,242.3,353.5,242.3C353.5,242.3,353.5,242.3,353.5,242.3L353.5,242.3z"/>
<path fill="#FFFFFF" d="M350.9,242.2C350.9,242.2,350.9,242.1,350.9,242.2C350.9,242.1,350.9,242.2,350.9,242.2L350.9,242.2z"/>
<path fill="#FFFFFF" d="M353.5,242.3c0,0,0.1,0.1,0.1,0.1l0,0C353.6,242.4,353.6,242.4,353.5,242.3L353.5,242.3z"/>
<path fill="#F0DACB" d="M347.2,255.7c-0.5-0.5-1-1-1.5-1.5C346.1,254.8,346.6,255.3,347.2,255.7"/>
<path fill="#F0DACB" d="M481.9,253.4c0,0,0,0.1,0,0.1C481.9,253.5,481.9,253.5,481.9,253.4C481.9,253.4,481.9,253.4,481.9,253.4"/>
<path fill="#F0DACB" d="M482,252.9c0,0,0,0.1,0,0.1C482,253,482,253,482,252.9C482,252.9,482,252.9,482,252.9"/>
<path fill="#F0DACB" d="M481.5,254.9C481.5,254.9,481.5,254.9,481.5,254.9C481.5,254.9,481.5,254.9,481.5,254.9
	C481.5,254.9,481.5,254.9,481.5,254.9"/>
<path fill="#F0DACB" d="M481.8,253.9c0,0,0,0.1,0,0.1C481.8,254,481.8,254,481.8,253.9C481.8,254,481.8,253.9,481.8,253.9"/>
<path fill="#F0DACB" d="M480.8,257.2c0.1-0.1,0.1-0.1,0.1-0.2C480.8,257.1,480.8,257.2,480.8,257.2"/>
<path fill="#F0DACB" d="M481.1,256.2c0,0,0,0.1,0,0.1C481.1,256.3,481.1,256.2,481.1,256.2C481.1,256.2,481.1,256.2,481.1,256.2"/>
<path fill="#F0DACB" d="M481.4,255.4C481.4,255.4,481.4,255.4,481.4,255.4C481.4,255.4,481.4,255.4,481.4,255.4
	C481.4,255.4,481.4,255.4,481.4,255.4"/>
<polyline fill="#F0DACB" points="481.2,255.8 481.2,255.8 481.2,255.8 481.2,255.8 "/>
<path fill="#F0DACB" d="M481,256.6C481,256.7,481,256.7,481,256.6C481,256.7,481,256.7,481,256.6C481,256.7,481,256.7,481,256.6"/>
<path fill="#F0DACB" d="M482.9,248.6c0,0,0,0.1,0,0.1C482.9,248.7,483,248.6,482.9,248.6C483,248.6,483,248.6,482.9,248.6"/>
<path fill="#F0DACB" d="M485,239.6C485,239.7,485,239.7,485,239.6C485,239.7,485,239.7,485,239.6C485,239.7,485,239.7,485,239.6"/>
<path fill="#F0DACB" d="M482.7,250c-0.1,0.3-0.1,0.5-0.2,0.8c0,0,0,0,0,0C482.6,250.6,482.8,250.3,482.7,250"/>
<path fill="#F0DACB" d="M482.3,251.8c0,0,0,0.1,0,0.1C482.3,251.9,482.3,251.9,482.3,251.8C482.3,251.8,482.3,251.8,482.3,251.8"/>
<path fill="#F0DACB" d="M482.2,252.5C482.2,252.4,482.2,252.4,482.2,252.5C482.1,252.5,482.1,252.5,482.2,252.5
	C482.1,252.6,482.1,252.6,482.2,252.5C482.1,252.5,482.2,252.5,482.2,252.5"/>
<path fill="#F0DACB" d="M482.8,249.3c0,0,0,0.1,0,0.1C482.8,249.4,482.8,249.4,482.8,249.3C482.8,249.3,482.8,249.3,482.8,249.3"/>
<path fill="#F0DACB" d="M353.2,242.1c-0.6-0.4-1.3-0.4-2-0.1C351.9,241.9,352.5,241.9,353.2,242.1"/>
<path fill="#F0DACB" d="M351.8,252.4c0.1,0.2,0.3,0.3,0.5,0.3C352.2,252.5,352,252.4,351.8,252.4"/>
<path fill="#F0DACB" d="M351.7,252.2C351.6,252.2,351.6,252.3,351.7,252.2c0,0.2,0.1,0.2,0.2,0.2
	C351.8,252.3,351.8,252.2,351.7,252.2"/>
<path fill="#F0DACB" d="M353.7,253.1c-0.5-0.1-0.9-0.3-1.4-0.4C352.7,253.1,353.2,253.2,353.7,253.1"/>
<path fill="#F0DACB" d="M350.3,242.6c0.3,0,0.4-0.2,0.5-0.4C350.6,242.2,350.4,242.2,350.3,242.6"/>
<path fill="#F0DACB" d="M480.7,257.6c0.1-0.1,0.1-0.2,0.1-0.3C480.7,257.4,480.7,257.5,480.7,257.6"/>
<path fill="#F0DACB" d="M363.2,262.2C363.2,262.2,363.2,262.3,363.2,262.2C363.2,262.3,363.3,262.3,363.2,262.2
	C363.3,262.2,363.3,262.2,363.2,262.2C363.2,262.2,363.2,262.2,363.2,262.2"/>
<path fill="#F0DACB" d="M350.4,251c0,0.1,0,0.2,0.2,0.2c0,0,0,0,0,0C350.6,251.1,350.5,251.1,350.4,251"/>
<path fill="#F0DACB" d="M363.4,262.6C363.4,262.6,363.4,262.6,363.4,262.6C363.4,262.7,363.4,262.7,363.4,262.6
	C363.4,262.7,363.4,262.7,363.4,262.6C363.4,262.6,363.4,262.6,363.4,262.6"/>
<path fill="#F0DACB" d="M480.4,258.3c0.1-0.1,0.1-0.1,0.1-0.2C480.5,258.2,480.5,258.3,480.4,258.3"/>
<path fill="#F0DACB" d="M480.3,258.7c0.1-0.1,0.1-0.1,0.1-0.2C480.3,258.6,480.3,258.6,480.3,258.7"/>
<path fill="#F0DACB" d="M350.3,250.7C350.3,250.7,350.2,250.8,350.3,250.7c-0.1,0.2,0,0.3,0.1,0.3
	C350.4,250.9,350.5,250.8,350.3,250.7"/>
<path fill="#F0DACB" d="M480.5,258c0.1-0.1,0.1-0.1,0.1-0.2C480.6,257.8,480.6,257.9,480.5,258"/>
<path fill="#F0DACB" d="M350,242.8c0,0.1,0,0.1,0.1,0.1c0.2,0,0.2-0.2,0.2-0.3C350.2,242.6,350.1,242.6,350,242.8"/>
<path fill="#F0DACB" d="M349.6,249.3c-0.4-2.1-0.6-4.1,0.4-6.3C348.9,244.1,348.8,247.9,349.6,249.3"/>
<path fill="#F0DACB" d="M349.7,249.8c0,0.1,0.1,0.1,0.1,0.2c0,0,0.1-0.1,0.1-0.2c-0.1-0.1-0.1-0.1-0.2-0.2
	C349.7,249.7,349.7,249.7,349.7,249.8"/>
<path fill="#8D919B" d="M432.6,160.3c-0.7-3.7,3-6.7,2.9-10.8c-0.2-8-7.2-14.3-15.7-14.4c-8.5-0.1-15.9,6-16.5,14
	c-0.3,4.1,3.2,7.2,2.3,10.9c-1.6,6.5-10.2,11-11.1,19.7c-1.5,14.3,9,26.9,23.5,27c14.4,0,25.4-12.4,24.7-26.6
	C442.1,171.5,433.8,166.8,432.6,160.3"/>
<path fill="#4C1F19" d="M418.7,148.2L418.7,148.2C418.7,148.2,418.7,148.2,418.7,148.2c0.1,0.1,0.2,0.1,0.2,0.2c0,0,0.1,0.1,0.1,0.1
	c0.1,0.1,0.1,0.1,0.1,0.1l0.6,0.2c0,0,0,0,0.1,0c0,0,0.1-0.1,0.2-0.2c0.2-0.3,0.4-0.6,0.6-0.9c0.1-0.1,0.1-0.2,0.1-0.2l0.7-1.6
	l0-0.1c0-0.1-0.1-0.1-0.2-0.2c-0.1,0-0.2,0-0.3-0.1l-0.9-0.6c-0.1-0.1-0.2-0.1-0.2-0.1c-0.1,0-0.1,0-0.2,0.1l-0.1,0.1
	c0,0,0,0-0.1,0.1c-0.1,0.1-0.2,0.3-0.3,0.4l0,0.1c0,0-0.1,0.1-0.2,0.2c-0.1,0.1-0.2,0.2-0.2,0.2c-0.1,0.2-0.3,0.3-0.4,0.5l0,0.1
	l-1,1c-0.2,0.1-0.3,0.2-0.4,0.3l0,0.1c0.1,0,0.1,0.1,0.2,0.1c0.1,0.1,0.2,0.1,0.2,0.1c0.1,0,0.1,0.1,0.2,0.2
	c0.1,0.1,0.1,0.2,0.2,0.2l0.1,0l0,0c0,0,0,0,0,0l0,0c0,0,0.1,0,0.1,0c0-0.1,0-0.1-0.1-0.2c-0.1,0-0.1-0.1-0.1-0.2c0,0,0-0.1,0.1-0.1
	c0.1,0,0.2-0.1,0.4-0.1c0,0,0.1-0.1,0.1-0.1l0,0l0.2,0.2L418.7,148.2z M419.5,140.5L419.5,140.5
	C419.5,140.6,419.4,140.6,419.5,140.5c-0.1,0-0.2,0-0.2,0l-0.1,0c0,0-0.1,0-0.1,0c0,0-0.1,0-0.2,0c-0.1,0-0.1,0-0.1-0.1
	c0,0-0.1-0.1-0.3-0.1c-0.1,0-0.2-0.1-0.3-0.1c0,0-0.1,0-0.1,0c-0.1,0-0.2,0-0.2,0.1c-0.1,0.1-0.2,0.1-0.2,0.1c0-0.1,0.1-0.2,0.2-0.2
	c0.1,0,0.2-0.1,0.2-0.2c0-0.1-0.1-0.2-0.2-0.2c-0.1-0.1-0.2-0.1-0.3-0.2c-0.2-0.1-0.3-0.3-0.4-0.5c-0.1-0.2-0.1-0.3-0.2-0.5
	c0-0.1-0.1-0.1-0.1-0.2l0-0.5c0,0,0-0.1,0.1-0.1l0.1,0c0,0,0.1,0,0.2,0c0.1,0,0.2,0,0.2,0c0.3,0,0.5-0.1,0.7-0.1
	c0.2,0,0.4-0.1,0.7-0.1c0.5,0,1,0.3,1.5,0.7c0.5,0.4,0.8,0.8,0.9,1c0,0.1,0,0.1,0,0.2l0,0.2c0,0.2-0.1,0.4-0.4,0.6c0,0-0.1,0-0.1,0
	c-0.2,0-0.3,0-0.5,0.1c-0.2,0.1-0.3,0.1-0.5,0.1c0,0-0.1,0-0.1,0c0,0-0.1,0-0.1,0c-0.1,0-0.2,0-0.3,0.1c-0.1,0-0.2,0.1-0.2,0.1
	l-0.1,0L419.5,140.5z M413.8,149.6L413.8,149.6c0,0.1,0.1,0.1,0.2,0.1l0.1-0.1l-0.2,0C413.9,149.6,413.8,149.6,413.8,149.6
	L413.8,149.6z M413.4,149.6L413.4,149.6c0.1,0,0.2,0,0.2-0.1c0-0.1,0-0.1-0.1-0.1l-0.4,0c-0.1,0-0.2,0.1-0.3,0.1c0,0,0.1,0,0.1,0.1
	l0.3,0c0,0,0,0,0.1,0l0,0L413.4,149.6z M418.8,150.6c-0.2-0.2-0.4-0.3-0.6-0.5c-0.2-0.3-0.3-0.4-0.4-0.5l-0.2-0.2
	c-0.1-0.2-0.3-0.4-0.5-0.7c-0.1-0.1-0.2-0.3-0.3-0.4c-0.1-0.1-0.2-0.2-0.3-0.2l0,0c-0.2,0.2-0.4,0.4-0.6,0.6
	c-0.2,0.2-0.5,0.3-0.7,0.4c-0.1,0-0.1,0-0.2,0.1l0.1,0c-0.1,0.1-0.2,0.1-0.3,0.2l0,0l-0.4,0.2l-0.2,0l0-0.1c-0.1,0-0.1,0-0.1,0
	c-0.1,0-0.1,0-0.2,0c0,0-0.1,0-0.2,0c-0.1,0-0.1,0-0.2,0c0,0-0.1,0-0.2,0l0,0c0,0,0,0-0.1,0l-0.2,0c-0.1,0-0.2,0-0.3,0
	c0,0-0.1,0-0.2,0c-0.1,0-0.1,0-0.2,0.1c0,0-0.1,0.1-0.1,0.1c0,0,0,0-0.1,0c-0.1,0-0.2-0.1-0.2-0.1c0,0,0,0,0,0
	c-0.2,0.1-0.4,0.1-0.6,0.1c0-0.1,0-0.1-0.1-0.1c0.1-0.1,0.1-0.1,0.2-0.1c0,0,0.1-0.1,0.3-0.1c0.4-0.2,0.8-0.5,1.2-0.8
	c0.2-0.2,0.3-0.3,0.5-0.5c0.2-0.2,0.3-0.3,0.5-0.4l0,0c0.1-0.1,0.1-0.1,0.2-0.2c0-0.1,0.1-0.2,0.2-0.2c0,0,0.1-0.1,0.1-0.1
	c0,0,0.1-0.1,0.1-0.1l0-0.1c0.1-0.1,0.1-0.2,0.2-0.2c0.1,0,0.1-0.1,0.1-0.2c0.1-0.1,0.2-0.2,0.3-0.3c0.1-0.1,0.2-0.2,0.3-0.3l1-1
	c0.1-0.1,0.2-0.3,0.4-0.4c0.1-0.1,0.2-0.3,0.2-0.4c0,0,0-0.1,0-0.1c0,0-0.1,0-0.1-0.1l0-0.1c0-0.1,0.1-0.1,0.2-0.2
	c0.1-0.1,0.2-0.2,0.3-0.3l-0.2,0l-2.5,0.4c-0.3,0.1-0.6,0.2-1.1,0.2c-0.2,0-0.4-0.1-0.7-0.2l-0.3-0.1c-0.1,0-0.2-0.1-0.2-0.1
	c-0.1,0-0.2-0.1-0.3-0.1l-0.8-0.3l0-0.3c0,0,0.1,0,0.2-0.1c0.2-0.1,0.6-0.2,0.9-0.3c0.4-0.1,0.6-0.1,0.8-0.1l0,0l2.2-0.4l1.5-0.3
	l0,0l1.8-0.3c0,0,0.1,0,0.2,0c0,0,0.1,0,0.1,0c0,0,0,0,0.1,0c0.1,0,0.1,0,0.1-0.1c0.3-0.1,0.7-0.1,1-0.1c0.4,0,0.7,0,1-0.1
	c0.1,0,0.1-0.1,0.1-0.1c0,0,0,0,0,0c0,0,0,0,0.1,0c0.1,0,0.1,0,0.2,0c0.1,0,0.2,0,0.2,0l0.2,0l0.1,0c0,0,0.1,0,0.1,0
	c0,0,0.1,0,0.1,0c0.1,0,0.1,0,0.1,0l0,0l0.2,0l-0.1,0l0.1,0c0.1,0,0.1,0,0.1,0l0.4,0c0,0,0,0,0.1,0l0.1,0c0,0,0.1,0,0.1,0l0,0
	c0.1,0,0.2,0,0.2,0c0.1,0,0.1,0,0.2,0l0,0c0,0,0.1,0,0.2,0l0.5-0.1c0.1,0,0.1,0,0.2,0c0.8,0,1.3,0.1,1.5,0.2
	c0.1,0.1,0.2,0.2,0.3,0.3c0.1,0.1,0.2,0.2,0.4,0.4c0.1,0,0.1,0.1,0.2,0.1c0,0,0,0,0,0v0c0,0,0,0,0,0c0,0,0.1,0.1,0.1,0.1l0.1,0v0
	c0,0,0,0,0,0c0,0,0,0.1,0,0.1l0,0.4c0,0,0,0,0,0l0.1,0l-0.5,0.3c-0.1,0.1-0.3,0.1-0.5,0.1c-0.1,0-0.2,0-0.3,0c-0.1,0-0.2,0-0.2,0
	l-0.2,0c-0.6-0.1-1.2-0.2-1.8-0.2c-0.6-0.1-1.2-0.1-1.8-0.2l-0.3,0l-3.2,0.4c-0.1,0-0.2,0.1-0.3,0.1c0,0.1,0.1,0.1,0.3,0.1
	c0.4,0.1,0.7,0.3,1,0.5c0.1,0.1,0.2,0.3,0.2,0.4l0,0.2l-0.1,0c0,0,0.1,0.1,0.3,0.1c0,0,0,0,0.1-0.1c0,0,0.1,0,0.3-0.1
	c0.1-0.1,0.2-0.1,0.3-0.1c0.1,0,0.2-0.1,0.3-0.1c0.2-0.1,0.4-0.1,0.7-0.1l0.3,0c0.1,0.1,0.2,0.1,0.3,0.1c0.1,0,0.2,0.1,0.3,0.1
	c0.1,0.1,0.2,0.1,0.3,0.1c0.6,0.3,1,0.7,1,1.2c0,0.2-0.1,0.4-0.2,0.6c-0.1,0.2-0.3,0.4-0.4,0.6c-0.1,0.2-0.2,0.4-0.3,0.7l0,0
	c-0.3,0.5-0.6,1-0.7,1.5c-0.1,0.5-0.4,1-0.9,1.4l0,0c0,0,0,0,0,0l-0.2,0c-0.2,0-0.4,0.1-0.5,0.1c-0.2,0.1-0.5,0.2-0.8,0.2
	c-0.2,0-0.4,0-0.7,0c-0.2,0-0.4-0.1-0.5-0.1c0,0-0.1-0.1-0.1-0.1C419,150.6,418.9,150.6,418.8,150.6z"/>
<path fill="#4C1F19" d="M414.4,157.4L414.4,157.4c0-0.1-0.1-0.2-0.1-0.3l0,0c-0.1-0.1-0.2-0.2-0.4-0.4l0-0.1c0,0,0,0,0.1,0
	c0,0,0.1,0,0.1,0c0.1,0,0.2-0.1,0.2-0.2l0.1,0c0.1,0,0.2-0.1,0.3-0.1l0,0c0.1,0,0.1-0.1,0.1-0.1l0.1,0c0.1,0,0.2,0,0.3,0.1l0.2,0
	c0,0,0.1,0,0.1,0c0,0,0.1,0,0.1,0l0.1,0c0.3,0,0.5,0.1,0.8,0.2c0,0,0,0,0,0l0.1,0c0,0,0,0,0,0l0.1-0.1c0,0,0,0,0,0c0,0,0,0,0,0.1
	c0,0,0,0,0.1,0.1l0.1,0.1c0,0.1,0,0.1,0.1,0.1l0,0c0,0.1,0,0.1,0.1,0.2l0,0c0,0,0,0,0,0.1l0,0c0,0,0,0,0,0c0,0,0,0,0,0l0,0.1
	c0,0,0,0,0,0.1l0,0c0,0,0,0,0,0l0,0c0,0,0,0,0,0l0.1,0.5c0,0.1,0.1,0.2,0.1,0.3l0,0c0,0,0,0.1,0,0.1c0,0,0,0,0,0l0,0.1l0,0
	c0.3,0,0.5-0.1,0.6-0.1c0,0,0.1,0,0.2,0l0.1,0c0.1,0,0.2,0,0.2,0c0.1-0.1,0.3-0.3,0.5-0.7l0.1-0.2c0-0.1,0.1-0.2,0.1-0.2
	c0,0,0,0-0.1,0c-0.1,0-0.2,0-0.2,0.1l0,0l0,0c-0.1,0-0.2,0-0.3,0l-0.2,0c0,0-0.1,0-0.1,0l-0.2,0l-0.1,0l-0.1,0c0,0,0,0-0.1,0l0,0
	c-0.1,0-0.3-0.1-0.6-0.2l0,0c0,0,0,0,0,0c0,0,0,0,0,0l0,0c-0.1-0.1-0.1-0.1-0.2-0.2l0,0c0,0-0.1-0.1-0.1-0.3l-0.1-0.1c0,0,0,0,0-0.1
	c0,0,0-0.1-0.1-0.2l0-0.1c0,0,0-0.1,0.1-0.1c0,0,0-0.1,0-0.1l0-0.1c0,0,0-0.1,0.1-0.1c0,0,0,0,0.1,0c0,0,0.1,0,0.2,0l0.1,0
	c0,0,0.1,0,0.1,0c0.1,0,0.2,0,0.3,0l0,0c0.1,0,0.1,0,0.2-0.1l0.1,0l0,0l0,0l0.2-0.1l0.1,0c0,0,0.1,0,0.1,0l0,0l0,0l0.1,0
	c0,0,0,0,0-0.1c0,0,0,0,0,0l0,0l0.1,0c0,0,0.1,0,0.1,0c0,0,0.1,0,0.1,0c0,0,0,0,0,0c0,0,0,0,0.1,0c0,0,0.1,0,0.1,0l0,0
	c0,0,0,0,0.1,0l0,0l0,0c0.2,0,0.3-0.1,0.4-0.1l0.1,0c0,0,0.1,0,0.1,0c0.1,0,0.2,0,0.3,0l0,0l0,0l0.1,0c0,0,0,0,0,0c0,0,0,0,0,0l0,0
	c0,0,0,0,0,0l0.1,0c0,0,0,0,0,0l0,0c0,0,0.1,0,0.1,0.1c0,0,0.1,0,0.1,0l0.1,0c0,0,0,0,0,0l0.1,0c0.1,0,0.2,0,0.4,0.1
	c0.3,0.2,0.5,0.3,0.5,0.3l0.1,0.1c0.4,0.2,0.7,0.4,0.7,0.5c0,0.1,0,0.2,0,0.3l0,0c0,0,0,0,0,0l0,0.2c0,0,0,0,0,0.1
	c0,0.1-0.1,0.2-0.2,0.3l-0.1,0.1c0,0,0,0.1-0.1,0.1l0,0c0,0,0,0-0.1,0c0,0,0,0,0,0c0,0,0,0,0,0l0,0c0,0-0.1,0.1-0.1,0.1v0
	c0,0,0,0,0,0c0,0-0.1,0.1-0.1,0.2l0,0c0,0,0,0,0,0l0,0c0,0,0,0,0,0c0,0,0,0-0.1,0c0,0-0.1,0-0.1,0.1l0,0l0,0l0.1,0c0,0,0,0,0,0.1
	l0,0.1l-0.1,0l0,0c0,0,0,0,0,0c0,0,0,0.1-0.1,0.1l0,0c-0.1,0-0.1,0-0.1,0.1l0.1,0l0,0c0,0,0,0,0,0c0,0,0,0,0,0.1l0,0l0,0
	c0,0,0,0,0,0c0,0,0,0,0,0c0,0,0,0,0,0l0,0l0.1,0l0,0c0,0,0,0,0,0.1c0,0,0,0.1-0.1,0.1l0,0l0,0.1c0,0,0,0,0,0c0,0,0,0,0,0l0,0l0,0
	l-0.1,0l0,0c0,0,0,0,0,0c0,0,0,0,0,0c0,0,0,0,0,0l0,0c0,0,0,0,0,0c0,0,0,0-0.1,0l0,0c0,0,0,0,0.1,0l0,0c0,0,0,0,0,0l0,0c0,0,0,0,0,0
	c0,0,0,0,0,0l0,0c0,0,0,0,0,0l0,0c0,0.1,0,0.1-0.1,0.2l0,0c0,0,0,0,0,0c-0.1,0.1-0.2,0.1-0.2,0.2l-0.1,0c-0.2,0.1-0.3,0.2-0.4,0.2
	l0,0.1c0,0,0,0,0,0c-0.1,0-0.1,0-0.2,0c0,0,0,0,0,0.1c0,0,0,0,0,0l0,0l0,0c0,0,0,0-0.1,0l-0.2,0c0,0,0,0,0,0l-0.2,0c0,0-0.1,0-0.2,0
	l-0.1,0c0,0,0,0,0,0l0,0c-0.1,0-0.3,0-0.4,0l-0.1,0l-0.1,0c0,0-0.1,0-0.1,0l-0.1,0c0,0,0,0,0,0c-0.1,0-0.1,0-0.2,0.1l0,0
	c0,0,0,0,0,0c-0.1,0-0.1,0-0.2,0l0,0l0,0l0,0c-0.1,0-0.3,0.1-0.3,0.1c0,0,0,0,0,0l-0.3,0.2c-0.1,0-0.1,0-0.1,0.1l0,0
	c0,0.1-0.1,0.1-0.1,0.1l-0.1,0c-0.1,0-0.2-0.1-0.3-0.1l-0.1,0c0,0-0.1,0-0.2-0.1l-0.1-0.1c-0.1-0.1-0.1-0.2-0.2-0.2l0,0l0,0l0-0.1
	l0,0c0,0,0,0,0,0l0-0.1c-0.1,0-0.1-0.1-0.2-0.2l0,0c0,0,0,0,0-0.1l-0.1-0.1c-0.1-0.1-0.1-0.1-0.2-0.2l0,0c-0.1-0.1-0.2-0.2-0.3-0.4
	l0-0.1c0-0.3-0.1-0.4-0.2-0.5l0-0.1c0,0,0-0.1,0-0.1C414.8,157.7,414.7,157.5,414.4,157.4 M422.4,162.9c0,0-0.2-0.1-0.5-0.3
	l-0.2-0.2c-0.1-0.1-0.2-0.1-0.3-0.2c0,0,0,0,0,0l0,0c0,0,0,0,0,0l0,0c-0.1,0-0.1,0-0.1-0.1l0,0c-0.1,0-0.2,0-0.3-0.1l0,0l0,0l0,0
	l0,0c0,0,0,0,0,0c0,0-0.1,0-0.1,0.1l0,0c0,0-0.1,0-0.2,0c0,0,0,0,0,0c0,0,0,0,0,0c0,0,0,0,0,0l0,0c0,0,0,0,0,0l0,0l0,0l-0.1,0
	c0,0,0,0-0.1,0c0,0,0,0,0,0l0,0c-0.1,0-0.1,0-0.2,0c0,0-0.1,0-0.1-0.1c0,0-0.1,0-0.1,0h0c0,0,0,0,0,0c0,0,0,0,0,0l0,0c0,0,0,0-0.1,0
	l-0.1,0c0,0,0,0,0,0l0,0l0,0l0,0c0,0,0,0-0.1,0l0,0c0,0,0,0,0,0l0,0c0,0,0,0,0,0l0,0c0,0-0.1,0-0.1,0.1l0,0c0,0,0,0,0,0l0,0
	c0,0,0,0,0,0l-0.1,0l-0.2,0c0,0,0,0,0,0l-0.1,0c0,0,0,0,0,0l-0.1,0c-0.1,0-0.2,0-0.2,0l0,0l0,0c0,0-0.1,0-0.1,0l0,0
	c-0.1,0-0.2,0.1-0.2,0.1c0,0,0,0,0,0c0,0,0,0,0,0c0,0,0,0,0,0c-0.1,0-0.2,0-0.2,0.1l-0.1,0l0,0c0,0,0,0,0,0l-0.2,0c0,0-0.1,0-0.2,0
	l-0.1,0c-0.2,0-0.4,0-0.5,0.1l0,0l0,0l-0.1,0l-0.1,0c-0.4,0-0.6,0.1-0.7,0.1l0,0c-0.2-0.1-0.5-0.2-0.6-0.3c0-0.1,0-0.1-0.1-0.1l0,0
	l0,0l0,0c-0.1,0.1-0.2,0.1-0.3,0.1c-0.1,0-0.1,0-0.2,0l-0.1,0c-0.2,0-0.3,0-0.4-0.1l0,0c0,0,0,0,0,0l-0.1,0c0,0-0.1-0.1-0.1-0.1l0,0
	c0,0,0,0,0-0.1l-0.1-0.1c0,0,0,0,0,0l0,0c0,0,0,0-0.1-0.1c-0.3-0.2-0.4-0.3-0.4-0.4c0,0,0-0.1,0-0.1l0-0.1l0-0.1c0,0,0,0,0,0
	c0,0,0,0,0,0l0,0c-0.1-0.1-0.1-0.2-0.1-0.2l0,0c0,0,0,0,0,0h0c0,0,0-0.1,0-0.1l-0.1-0.1c0-0.1,0-0.2-0.1-0.2l0-0.1c0,0,0-0.1,0-0.1
	l0-0.1c-0.1-0.3-0.1-0.5-0.2-0.7l0,0c0,0,0,0,0,0l0,0l0,0c0,0,0,0,0,0c0,0,0,0,0-0.1l0-0.1c0,0,0,0,0-0.1l0,0c0,0,0-0.1,0-0.1l0-0.1
	c0,0,0,0,0,0l0,0c0,0,0,0,0,0l0-0.1c0-0.2,0-0.3-0.1-0.4l0-0.1c0,0,0-0.1,0-0.1l0-0.1c0,0,0,0,0,0c0,0,0,0,0,0l0-0.1
	c0,0,0-0.1,0-0.2l-0.1-0.4c0-0.5,0-0.8-0.1-0.9l0-0.1l0,0c0,0,0,0,0,0l0-0.1c0,0,0,0,0-0.1c0,0,0,0,0-0.1l0,0l0,0c0,0,0,0,0,0l0-0.1
	l-0.1-0.1l0-0.1c-0.2-0.1-0.3-0.3-0.4-0.4c0.1,0,0.1,0,0.1-0.1l0-0.1c0,0,0,0,0,0c0,0,0-0.1-0.1-0.1l0-0.1c0,0,0,0,0,0l0,0l0,0
	c0,0,0,0,0.1-0.1l0-0.1c0,0,0,0,0,0l0.1-0.1l0,0c0,0,0.1-0.1,0.2-0.2l0-0.1c0,0,0,0,0,0l0,0c0,0,0,0,0,0l0,0l0,0c0,0,0.1,0,0.1,0
	l0,0c0.1,0,0.2-0.1,0.3-0.1c0.1,0,0.2,0,0.3,0.1l0,0c0,0,0.1,0,0.1,0l0,0c0.5,0,0.9,0.2,1.2,0.4c0.3,0.2,0.4,0.3,0.4,0.4l0,0.2
	c0,0.3,0.1,0.6,0.2,0.6c0,0,0,0,0,0.1c0,0.2,0,0.3,0.1,0.5l0,0.1c0,0,0,0,0,0l0,0.1c0,0,0,0-0.1,0.1c0,0,0,0,0,0c0,0,0,0.1-0.1,0.1
	l0.1,0l0,0l0,0c0,0,0.1,0,0.1,0c0,0,0,0.1,0,0.1l0,0.1l0.1,0c0,0.1,0,0.1-0.1,0.2c0,0,0,0,0,0l0,0l0,0c0,0,0,0,0,0l0,0c0,0,0,0,0,0
	l0,0l0,0l0.1,0.1c0-0.1,0-0.1,0.1-0.1c0,0,0,0,0,0.1l0,0l0,0l0,0l0,0.1c0,0,0,0,0,0c0,0,0,0,0,0c-0.1,0-0.1,0-0.1,0l0,0c0,0,0,0,0,0
	l0,0c0,0,0,0,0,0c0,0,0,0,0,0l0,0.1c0,0,0,0,0,0.1l0,0.1c0,0,0,0,0,0l0,0c0,0,0,0,0,0l0,0c0,0,0,0,0,0c0,0,0,0,0,0l0,0c0,0,0,0,0,0
	l0,0l0,0.1c0,0,0,0,0,0.1l0,0.1c0,0,0,0,0,0c0,0,0,0,0,0c0,0,0,0,0,0l0-0.1c0,0,0,0,0,0h0l0-0.1c0,0,0,0,0,0l0,0l0,0.1l0.1,0l0,0
	c0,0,0,0,0,0c0,0,0,0,0,0c0,0,0,0,0,0l0,0.2c0,0,0,0,0,0.1c0,0,0,0,0,0c0,0,0,0,0,0c0,0,0,0,0,0l0,0c0.1,0,0.1,0.1,0.1,0.1l-0.1,0.1
	c0,0,0,0,0,0l0,0c0,0,0,0,0,0l0,0.1c0,0,0,0.1,0,0.1l0,0l0.1,0l0,0l0,0c0,0,0,0,0,0l0,0c0,0,0,0,0,0c0,0,0,0,0-0.1l0,0.1
	c0,0,0,0,0,0.1l0,0c0,0,0,0,0,0l0,0c0,0,0,0,0,0l0,0c0,0,0,0.1,0,0.1l0,0c0,0,0,0,0,0l0,0.1c0,0,0,0.1,0,0.1l0,0c0,0,0-0.1,0-0.1
	l0-0.2l0.1,0c0,0,0,0,0,0.1c0,0,0,0.1,0.1,0.1l0,0l0,0.1c0,0,0,0,0,0c0,0,0,0.1,0,0.1c0,0,0,0,0,0h0l0,0c0,0,0,0,0,0.1l0,0
	c0,0,0.1-0.1,0.1-0.1c0,0,0,0.1-0.1,0.1l0,0c0,0-0.1,0-0.1,0.1l0,0l0,0c0,0-0.1,0-0.1,0.1l0,0.1c0,0,0,0,0,0l0,0l0,0.1c0,0,0,0,0,0
	l0,0c0,0,0,0,0,0l0,0c0,0,0.1,0,0.1,0.1h0c0,0,0,0,0,0l0,0l0,0h0l0,0.1c0,0,0,0,0,0.1l0-0.1l0-0.1c0,0,0,0,0,0l0,0c0,0,0,0,0,0
	c0,0,0,0.1,0,0.1c0,0,0,0,0,0c0,0,0,0,0,0l0,0l0,0.1l0,0c0,0,0,0,0,0l0,0c0,0,0,0,0,0c0,0,0,0,0,0l0,0c0,0,0,0,0.1,0l0,0
	c0,0,0,0,0,0l0,0c0,0,0,0,0,0l0,0c0,0,0,0,0,0l0,0l0,0c0,0-0.1,0-0.1,0.1l0,0.1c0,0,0,0,0,0l0,0c0,0,0,0.1,0.1,0.2l0,0c0,0,0,0,0,0
	c0,0,0,0,0,0h0c0,0,0,0,0,0l0,0c0,0,0,0,0,0.1l0.1,0.1l0,0c0,0,0,0,0,0l0.1,0c0,0,0,0,0,0c0,0,0,0-0.1,0l0,0c0,0,0,0,0,0l0.1,0.1
	c0,0,0,0.1,0,0.1l0,0.1l0,0c0,0,0,0-0.1,0.1l0.1,0c0,0,0,0,0,0c0,0,0,0,0,0l0,0c0,0,0,0,0,0l0,0c0.2,0,0.5,0,0.8-0.1l0.4,0
	c0.2,0,0.3,0,0.5,0l0.1,0l-0.4,0l0,0l0,0c0.1,0,0.3-0.1,0.4-0.1l0.2,0l0,0l-0.1,0c0,0-0.1,0-0.1,0l0.4,0l0.5,0l0,0
	c0,0,0.1,0,0.1-0.1c0,0,0,0,0,0h0c0,0,0.1,0,0.1,0c0,0,0,0,0,0l0.4,0l0.1,0l0,0c0,0,0,0,0,0l0,0c0.1,0,0.1,0,0.2,0c0,0,0.1,0,0.1,0
	l0.1,0c0,0,0,0,0,0h0c0,0,0,0,0,0s0,0,0,0c0.1,0,0.2,0,0.2,0l0,0c0,0,0,0,0,0l0,0l0,0l0,0c0.1,0,0.2,0,0.3,0l0.1,0c0,0,0,0,0.1,0
	c0,0,0.1,0,0.1,0c0.1,0,0.2,0,0.3,0l0,0c0.1,0,0.1,0,0.2,0c0,0,0.1,0,0.1,0l0.2,0c0,0,0,0,0,0l0,0c0,0,0,0,0,0c0,0,0,0,0,0l0,0l0,0
	l0,0c0,0,0,0,0,0l0.2,0l0,0c0,0,0,0,0,0c0.1,0,0.2,0.1,0.3,0.1c0,0,0,0,0.1,0c0.1,0,0.1,0,0.2,0.1h0l0,0l0,0c0,0,0.1,0,0.1,0
	c0,0,0,0,0,0c0,0,0,0,0.1,0c0,0,0,0,0.1,0c0.1,0,0.3,0.1,0.5,0.1c0,0,0,0,0,0l0.1,0c0,0,0,0,0,0c0-0.1,0.1-0.1,0.1-0.3l0,0
	c0,0,0,0,0-0.1c0,0,0,0,0,0l0,0c0,0,0-0.1,0.1-0.2l0,0c0,0,0-0.1,0-0.1l0,0l0,0l0-0.2l0-0.1c0,0,0,0-0.1,0c0,0,0,0,0,0c0,0,0,0,0,0
	c0,0,0,0,0,0l0-0.1l0.1,0l0-0.1l0,0c0,0,0-0.1,0.1-0.1l0,0c0,0,0-0.1,0-0.1c0,0,0.1,0,0.1,0c0,0,0,0,0-0.1v0c-0.1,0-0.1,0-0.1,0
	c0,0,0,0,0,0l0,0c0,0,0-0.1,0-0.1l0,0l0-0.1c0,0,0,0,0,0l0-0.1c0,0,0,0,0,0c0,0,0-0.1,0.1-0.1c0,0,0,0,0,0l0,0c0,0,0,0,0,0
	c0,0,0,0,0,0l0.1,0c0,0,0,0.1-0.1,0.1l0,0c0,0,0,0,0,0l0,0l0,0l0,0.1l0,0l0,0c0,0,0,0,0,0l0,0c0,0,0,0,0,0l0,0l0,0c0,0,0,0,0,0
	c0,0,0,0,0-0.1l0-0.1l0.1,0c0,0,0,0.1,0.1,0.1c0,0,0.1,0,0.1,0l0.1-0.1l0-0.1c0,0,0,0,0,0l0,0c0,0-0.1,0-0.1,0l0,0l0-0.1
	c0,0,0,0,0,0c0,0,0,0,0,0c0,0,0,0,0-0.1c0,0,0,0,0.1,0l-0.1,0c0,0-0.1,0.1-0.1,0.2c0-0.1,0-0.2,0.1-0.3l0,0c0,0,0,0,0,0l0-0.1
	c0,0,0,0,0,0c0,0,0,0,0,0h0c0-0.1,0.1-0.2,0.1-0.2c0-0.1,0-0.1-0.1-0.2l0,0c0,0,0,0,0-0.1l-0.1,0l0,0l0-0.1c0,0,0,0,0,0l0,0
	c0,0,0-0.1,0-0.1c0,0,0,0,0,0c0,0,0,0,0,0c0,0,0,0,0,0l0.1,0l0,0l0,0c0,0,0,0.1,0.1,0.1c0,0,0.1,0,0.1,0c0,0,0,0,0,0l0,0
	c0,0,0,0,0,0h0c0,0,0,0,0,0l0-0.1c0,0,0,0,0-0.1c0,0,0-0.1,0-0.1l0,0c0,0,0,0,0,0l0,0l0,0c0,0-0.1,0-0.1,0.1l0,0l0,0
	c0,0,0-0.1,0-0.1l0-0.1c0,0,0.1-0.1,0.1-0.1c0,0,0,0,0,0l0-0.1l-0.1,0c0,0,0-0.1,0-0.1l0.1,0l0,0.1c0,0,0,0,0.1,0l0-0.1c0,0,0,0,0,0
	l0-0.1c0,0,0,0,0,0l0,0c0,0,0,0,0,0l-0.1,0.1l0,0l0,0c0,0,0,0,0,0l0-0.1c0-0.1,0-0.1,0-0.2l0-0.1c0,0,0,0,0-0.1l0-0.1l0-0.1
	c0,0,0,0,0,0v0c0,0,0-0.1,0-0.1l0-0.1l0,0c0,0,0,0,0,0l0,0.1c0,0,0,0,0,0h0c0,0,0,0,0.1,0c0,0,0.1,0,0.1-0.1c0,0,0-0.1,0-0.1l0,0
	l-0.1,0c0,0,0,0,0,0c0,0,0,0,0,0l-0.1,0c0,0,0,0,0-0.1l0,0c0,0,0,0,0,0l0,0c0,0,0,0,0,0l0.1-0.1c0,0,0,0,0,0c0,0,0,0,0,0
	c0,0,0,0,0,0l0-0.1l0,0l0,0c0,0,0,0,0,0l0,0c0,0,0.1,0,0.1-0.1c0,0,0-0.1,0-0.1l0,0c0,0,0,0,0,0l0-0.1c0,0,0-0.1,0-0.1l0-0.2
	c0,0,0-0.1-0.1-0.1c0,0,0-0.1,0-0.1l0,0c-0.1,0-0.2,0.1-0.2,0.1c0,0,0,0,0,0l0-0.1c0,0,0,0,0,0v0c0,0,0,0,0,0l0,0l0,0c0,0,0,0,0,0
	l0.1,0c0,0,0,0,0,0l0,0c0,0,0-0.1,0-0.1c0,0,0,0.1,0,0.1l0,0c0,0,0,0,0,0c0,0,0,0,0,0c0,0,0,0,0,0c-0.1,0-0.1,0-0.1,0.1l0,0
	c-0.1,0-0.1,0-0.2,0l0,0l0.2,0l0,0c0,0,0,0,0,0c0,0,0,0,0,0l0,0c0,0-0.1,0-0.1,0.1l0,0l0,0c0,0,0,0,0,0c0,0-0.1,0-0.1,0l-0.1,0
	c0,0,0,0,0,0l-0.1,0c0,0,0,0,0,0l0,0c0,0,0,0,0,0c0,0,0,0,0,0l0,0c0,0,0,0,0,0l0,0c0,0,0,0,0,0l0,0.1l0,0c0,0,0,0,0-0.1l0,0l-0.1,0
	c0,0-0.1,0-0.1,0c0,0,0,0,0,0c0,0,0,0,0,0c0,0,0-0.1,0-0.1c0,0,0-0.1,0-0.1l0,0c0,0,0,0,0,0l0,0c0,0-0.1,0-0.1,0l-0.1,0c0,0,0,0,0,0
	l0,0c0,0,0,0,0,0l-0.1,0l0,0c-0.1,0-0.2,0-0.2,0.1l0,0.1c0,0,0,0,0,0c0,0,0,0,0,0l0,0c0,0,0,0,0,0c0,0-0.1,0-0.1,0.1c0,0,0,0,0-0.1
	l0,0c0,0,0,0,0,0c0,0-0.1,0-0.1,0l0,0c0,0,0,0-0.1,0c-0.1,0-0.1,0-0.1,0.1l0,0c-0.1,0-0.2,0-0.3,0l0,0l0-0.1c0,0,0,0,0,0l0,0
	c0,0-0.1,0.1-0.1,0.1l0,0c0,0,0,0,0,0c0,0,0,0-0.1,0l0,0c0,0,0,0-0.1,0l-0.4,0l0,0l0,0c0,0-0.1,0-0.1,0l-0.1,0c0,0,0,0,0,0l0,0
	l-0.1,0c0,0,0,0,0,0l-0.1,0c0,0,0,0,0,0l-0.1,0l0,0c0,0,0,0,0,0l0,0c0,0,0,0,0,0l0,0c0,0,0,0,0,0l0,0c0,0,0,0,0,0
	c0,0-0.1,0.1-0.1,0.1l0,0l0,0c0,0,0,0,0,0l0,0c0,0-0.1,0-0.1,0.1c0,0,0-0.1,0-0.1l0,0c0,0,0,0,0,0c0,0,0,0,0,0c0,0,0,0,0,0l0,0
	c0,0,0,0,0,0c0,0,0,0,0,0l0,0c0,0,0,0,0,0l0,0c0,0,0,0.1-0.1,0.1l0,0c0,0,0,0,0,0c0,0,0,0,0,0l-0.1,0c0,0,0,0,0,0l0,0l0,0l0,0
	c0,0,0,0,0,0l-0.1,0c0,0,0,0,0,0l0,0c0,0,0,0,0,0l-0.1,0c0,0-0.1,0-0.2,0c0,0,0,0,0,0l0,0c0,0,0,0,0,0l0,0c0,0,0,0.1,0,0.1l0,0
	c0,0,0,0,0,0c0,0,0,0-0.1,0.1l-0.1,0c0,0,0,0,0,0c0,0,0,0,0,0.1l-0.1,0c0,0,0,0,0,0c0,0,0,0,0,0c0,0,0,0-0.1,0l-0.1,0c0,0,0,0,0,0
	c0,0,0,0,0,0c0,0,0,0-0.1,0l-0.1,0c-0.2,0.1-0.6,0.2-1.4,0.3c-0.2,0-0.4-0.1-0.6-0.2l0,0c-0.1-0.1-0.2-0.1-0.3-0.1l0,0
	c-0.1-0.1-0.2-0.1-0.2-0.1h0c0,0,0,0,0,0c-0.1-0.1-0.3-0.3-0.5-0.4l-0.1-0.1c-0.2-0.3-0.4-0.5-0.5-0.5l0,0c0,0,0-0.1-0.1-0.1
	c0,0,0,0,0.1-0.1c0.1,0,0.2-0.1,0.2-0.1l0.1,0c0,0,0.1,0,0.1,0c0.1,0,0.2,0,0.3-0.1l0,0c0,0,0,0,0,0c0,0,0,0,0,0c0,0,0,0,0,0l0.1,0
	c0,0,0.1,0,0.1,0l0,0l0,0c0,0,0,0,0.1,0c0.1,0,0.2,0,0.2-0.1l0,0c0,0,0.1,0,0.1,0l0,0c0,0,0,0,0,0c0,0-0.1,0-0.1,0c0,0,0,0,0,0l0,0
	c0,0,0.1,0,0.1,0l0.1,0c0,0,0.1,0,0.1,0l0,0c0,0,0.2-0.1,0.3,0l0.3,0l0.2,0l0-0.1c0,0,0,0,0,0l0.1,0l0.4,0c0,0,0.1,0,0.1,0l0.1,0
	l0.3,0c0,0,0.1,0,0.1-0.1c0,0,0,0,0,0c0,0,0.1-0.1,0.1-0.1l0.1,0c0,0,0,0,0,0l0,0c0,0,0,0,0,0c0.1,0,0.1,0,0.2,0l0.1,0
	c0,0,0,0,0.1,0c0,0,0.1,0,0.1,0l0.3,0c0,0,0,0,0,0c0,0,0.1,0,0.2,0l0.1,0c0,0,0,0,0,0c0,0,0,0,0,0l0.1,0l0,0c0,0,0,0,0,0l0,0
	c0.1,0,0.2,0,0.2,0l0,0c0,0,0,0,0,0c0,0,0,0,0,0l0.1,0c0,0,0,0,0,0c0,0,0.1,0,0.1,0h0c0,0,0,0,0,0c0,0,0,0,0,0l0,0c0,0,0,0,0,0
	l0.2,0c0,0,0,0,0,0l0.1,0c0,0,0,0,0,0l0,0c0,0,0,0,0,0l0.1,0c0,0,0,0,0,0l0.1,0c0,0,0.1,0,0.1,0c0,0,0.1,0,0.2,0l0.1,0c0,0,0,0,0,0
	l0,0l0.1,0l0,0l0.1,0c0,0,0.1,0,0.1,0c0,0,0,0,0.1-0.1l0,0c0,0,0.1,0,0.1,0l0,0c0,0,0,0,0,0c0,0,0.1,0,0.1,0l0.1,0c0,0,0.1,0,0.1,0
	c0,0,0.1,0,0.1,0l0.1,0c0.1,0,0.2,0,0.3,0c0.1,0,0.2,0,0.2,0c0,0,0,0,0,0l0.2,0c0,0,0,0,0,0l0.1,0c0,0,0.1,0,0.2,0
	c0.1,0,0.1,0,0.2,0l0,0c0.1,0,0.2,0,0.3,0l0,0c0.1,0,0.2,0.1,0.2,0.1c0,0,0-0.1,0-0.1l0,0c0.2,0,0.3,0,0.5,0.1
	c0.2,0.1,0.4,0.2,0.6,0.2l0.1,0.1c0,0,0.1,0.1,0.1,0.1c0,0,0.1,0,0,0c0,0,0.1,0.1,0.3,0.2l0.3,0.2c0.1,0,0.1,0.1,0.1,0.1l0.1,0.1
	c0,0.1,0,0.1,0.1,0.1l0,0c0.2,0.2,0.4,0.5,0.6,0.8c0.1,0.1,0.2,0.3,0.2,0.5c0,0,0,0.1,0,0.1v0.1c-0.1,0.2-0.2,0.4-0.2,0.3l0,0
	c0,0-0.1,0.1-0.1,0.2v0c0,0,0,0,0,0c0,0,0,0.1,0,0.1c0,0,0,0,0,0c0,0,0,0.1,0,0.2v0.2c0,0.1,0,0.1-0.1,0.2l0,0.1c0,0,0,0.1,0,0.1
	l0,0.1v0.1l0,0l0,0c0,0,0,0,0,0l0,0l0,0.1c0,0,0,0.1-0.1,0.1l0,0.1c0,0,0,0,0,0l0,0c0,0,0,0,0,0v0.1c-0.1,0-0.1,0-0.1,0.1v0
	c0,0,0,0.1,0,0.1v0c0,0,0,0,0,0v0.1l-0.1,0l0,0c0,0,0,0,0,0c0,0,0,0,0,0c0,0,0,0.1,0,0.2c0,0,0,0,0,0v0c0,0,0,0,0,0c0,0,0,0,0,0
	c0,0,0,0,0,0.1c0,0,0,0.1-0.1,0.1l0,0c0,0,0,0,0,0v0c0,0,0,0.1,0,0.1v0c0,0,0,0-0.1,0.1l0,0v0l0,0l0,0.1c0,0,0,0,0,0c0,0,0,0,0,0
	l0,0c0,0,0,0,0,0v0c0,0,0,0,0,0l0,0l-0.1,0c0,0,0,0,0,0l0.1,0.1v0c0,0,0,0,0,0l0,0l0.1,0c0,0-0.1,0-0.1,0.1v0c0,0,0,0,0,0v0.1
	c0,0,0,0,0,0l0,0c0,0,0,0,0,0.1l0,0l0,0l0,0l0,0.1c0,0,0,0,0,0l-0.1,0l0,0l0,0.1l0,0l0,0.1c0,0,0.1,0,0.1,0c0,0.1-0.1,0.1-0.1,0.1
	c0,0,0,0,0,0.1c-0.1,0-0.1,0.1-0.1,0.1l0,0c0,0,0,0.1-0.1,0.1c0,0,0,0,0,0c0,0-0.1,0.1-0.1,0.1v0l0,0c0,0,0,0,0,0.1v0.1l0,0l0,0
	c0,0,0,0,0,0c0,0,0,0,0,0c0,0,0,0,0,0l0,0c0,0,0,0,0,0c0,0,0,0,0,0c0,0,0,0,0,0c0,0,0,0,0,0c0,0.1-0.1,0.1-0.1,0.1c0,0,0,0,0,0
	c0,0-0.1,0.1-0.1,0.1c0,0,0,0.1,0,0.1c0,0,0,0,0,0l0,0c0,0,0,0,0,0l0,0.1l0,0v0l-0.1,0c0,0,0,0,0,0l0,0c-0.1,0.1-0.1,0.2-0.2,0.3
	l0,0c0,0,0,0,0,0c-0.1,0.1-0.2,0.2-0.3,0.3l0,0.1l0,0c0,0,0,0-0.1,0l0,0v0c0,0.1,0,0.1-0.1,0.1c0,0,0.1,0,0.1-0.1c0,0,0,0,0,0l0,0
	c0,0,0,0,0,0.1l0,0.1c0,0,0,0,0,0l-0.1,0.1l0,0c0,0,0,0-0.1,0.1l0,0c0,0,0,0,0,0c0,0,0,0,0,0l0,0l0,0.1c0,0,0,0,0,0v0c0,0,0,0,0,0
	c0,0,0-0.1,0-0.1c0,0,0,0,0-0.1l-0.1,0c0,0,0,0,0,0l-0.1,0c0,0,0,0,0,0c0,0,0,0,0,0c0,0,0,0,0,0c0,0,0,0,0,0c0,0,0,0,0,0
	c0,0,0,0,0,0c0,0.1-0.1,0.1-0.2,0.2l0,0l-0.1,0.1c0,0.1-0.1,0.1-0.1,0.1l0,0l0,0c0,0,0,0,0,0l0,0c0,0,0,0,0,0c0,0,0,0,0,0l0,0
	c0,0,0,0.1-0.1,0.1l0,0c0,0,0,0,0,0l0,0c0,0,0,0,0,0c0,0,0,0,0,0l0,0c0,0,0,0-0.1,0c-0.1,0.1-0.2,0.1-0.4,0.2c0,0-0.1,0.1-0.3,0.1
	l0,0c-0.1,0-0.1,0-0.1,0.1c0,0,0,0-0.1,0c-0.1,0-0.2,0.1-0.2,0.1l0,0c0,0,0,0,0,0l-0.1,0C422.6,163,422.5,162.9,422.4,162.9
	C422.5,162.9,422.4,163,422.4,162.9C422.4,163,422.4,163,422.4,162.9C422.4,163,422.4,163,422.4,162.9
	C422.4,163,422.4,163,422.4,162.9L422.4,162.9L422.4,162.9z"/>
<path fill="#4C1F19" d="M419.1,174.4L419.1,174.4c0.2,0.1,0.3,0.1,0.6,0.1c0,0,0-0.1-0.1-0.1l-0.1-0.1c0-0.1-0.1-0.2-0.2-0.2
	l-0.1-0.1c0,0-0.1-0.1-0.2-0.2c-0.1-0.1-0.2-0.2-0.2-0.1c-0.1,0-0.1,0-0.2,0c-0.1,0-0.2-0.1-0.3-0.2c-0.1-0.1-0.2-0.1-0.3-0.1
	l-0.2,0l-1.6,0.3c-0.3,0.1-0.4,0.1-0.5,0.2c-0.1,0.1-0.2,0.3-0.3,0.5l-0.7,1.2c0,0,0,0,0,0l0,0c0,0.1,0,0.1,0,0.1
	c0.5,0.4,0.7,0.6,0.9,0.8c0.1,0.2,0.2,0.4,0.2,0.8l0.1,0c0.1,0,0.3-0.1,0.5-0.2c0.2-0.1,0.4-0.2,0.6-0.2l0.1,0c0.1,0,0.2,0,0.3,0.1
	c0.3,0.1,0.5,0.2,0.8,0.3c0.1,0.1,0.1,0.2,0.1,0.3c0,0.1,0,0.1-0.1,0.1c-0.1,0-0.1,0-0.1,0.1c-0.2,0.1-0.2,0.1-0.2,0.1c0,0,0,0,0,0
	c0,0-0.1,0-0.3,0.1c-0.2,0.1-0.5,0.2-1,0.3l-0.1,0c0,0,0,0-0.1,0l-0.1,0c0,0,0,0-0.1,0l-0.1,0c-0.1,0-0.1,0-0.2-0.1c0,0-0.1,0-0.1,0
	c0,0-0.1,0-0.1,0l0,0c0,0,0,0.1,0,0.2c0,0.1,0,0.1,0,0.2l0,0.3l0,0.5l0.3,0c0.2,0,0.3,0,0.5-0.1l0.5-0.1c0.2,0,0.3-0.1,0.5-0.1
	c0.2,0,0.3,0,0.5-0.1c0.1,0,0.1,0,0.2,0c0.1,0,0.1,0,0.2,0c0,0,0-0.1,0-0.2c0-0.2,0-0.4,0.1-0.6c0,0,0-0.1,0-0.2c0-0.1,0-0.3,0-0.4
	c0-0.2,0-0.3,0-0.5c0-0.2,0-0.3,0-0.4l0-0.3c0-0.1,0-0.2,0-0.4c0-0.1,0-0.2,0-0.3c-0.3,0-0.6,0.1-0.8,0.2c-0.2,0.1-0.5,0.2-0.9,0.2
	c-0.6-0.1-1.1-0.3-1.6-0.6c0.1,0,0.1,0,0.1-0.1c0-0.1,0.1-0.2,0.2-0.2c0.1-0.1,0.3-0.2,0.6-0.3l0.4-0.2c0.4-0.3,1-0.4,1.6-0.4
	C418.7,174.4,418.9,174.4,419.1,174.4 M414,172.2L414,172.2C414,172.1,414,172.1,414,172.2c-0.3-0.1-0.7,0-1.1,0.2
	c-0.5,0.2-0.8,0.3-1,0.4l0.1,0c0.1,0,0.3-0.1,0.5-0.2c0.1,0,0.2-0.1,0.4-0.1c0.3-0.1,0.6-0.2,0.9-0.2
	C413.9,172.2,414,172.2,414,172.2z M428.1,177.5c0.1,0.1,0.2,0.1,0.3,0.2c0.1,0.1,0.1,0.1,0.2,0.2l-0.1,0.1
	c-0.1,0.1-0.2,0.1-0.2,0.2c-0.1,0.1-0.1,0.1-0.2,0.2c-0.1,0-0.2,0.1-0.2,0.1c-0.2,0-0.4,0.1-0.5,0.2c-0.3,0-0.5,0-0.6,0
	c-0.1,0-0.2,0-0.2,0c-0.2,0-0.4,0-0.6-0.1c-0.2-0.1-0.4-0.1-0.6-0.1l-0.4,0l0.1,0.1c-0.1,0-0.2,0-0.3,0l-0.1,0l-0.1,0
	c-1.2-0.4-2.1-1-2.8-1.8l0,0c-0.1,0-0.1,0-0.1,0c0,0,0,0.2,0,0.5l0,0.3c0,0.3,0,0.6,0,0.9c0,0.3,0,0.6,0,0.9c0,0.1,0,0.2,0,0.3
	c0,0.1,0,0.2,0,0.3c0.1,0.1,0.1,0.1,0.1,0.1l0,0.1c0,0.3,0,0.5-0.1,0.5c-0.1,0.1-0.2,0.2-0.4,0.3c-0.3,0.1-0.5,0.2-0.7,0.3
	c-0.2,0.1-0.5,0.2-0.7,0.2c-0.3,0-0.6-0.2-0.8-0.3c-0.2-0.2-0.5-0.3-0.7-0.3c-0.3,0-0.6,0-0.9,0.1c-0.3,0.1-0.6,0.1-0.9,0.1l-0.3,0
	c-0.1,0-0.1,0-0.3-0.1c-0.1,0-0.2-0.1-0.3-0.1c0,0,0,0-0.1,0.1c0,0.1-0.1,0.2-0.2,0.3c-0.1,0-0.1,0.1-0.2,0.1l-0.1,0
	c-0.8-0.3-1.2-0.8-1.2-1.5c0,0,0-0.1,0-0.1l0.1-0.1l0.1-1.8c0,0,0-0.1,0-0.2c0-0.2,0-0.3,0-0.4c0,0,0-0.1,0-0.1l-0.1,0.1
	c0,0,0,0.1,0,0.1c0,0,0,0,0,0.1c-0.1,0.3-0.3,0.6-0.7,0.9l-0.1,0c0,0-0.1,0-0.2,0.1c-0.2,0.2-0.4,0.3-0.6,0.4
	c-0.4,0.1-0.7,0.3-1.2,0.4c-0.2,0.1-0.4,0.1-0.5,0.1c0,0,0,0-0.1,0c-0.1,0-0.2,0-0.2,0c0,0-0.1,0-0.2,0c-0.1,0-0.2,0-0.2,0
	c-0.1,0-0.1,0-0.1,0c0,0-0.1,0-0.1,0c-0.1,0-0.1,0-0.1,0c0,0,0,0-0.1,0l-0.3,0c0,0,0,0,0,0c0,0-0.1,0-0.1,0c0,0-0.1,0-0.2,0l-0.5,0
	c0.1,0,0.2-0.1,0.2-0.1c0-0.1,0.1-0.1,0.2-0.2c0.5-0.3,1-0.6,1.4-1c0.1-0.2,0.3-0.3,0.5-0.4l0.9-1.1l0-0.1c0,0,0,0,0,0
	c0.1-0.1,0.2-0.3,0.3-0.4c0.3-0.3,0.5-0.6,0.7-0.9c0.1-0.1,0.1-0.3,0.1-0.4l0,0l-1.7-0.6l-0.5-0.1c0,0,0,0,0,0l0,0
	c0-0.1,0-0.1,0.1-0.1c0.1,0,0.1,0,0.1-0.1c0,0,0,0,0-0.1l0-0.1c0.4,0,0.7-0.1,1-0.3c-0.1,0-0.2,0-0.3,0.1c-0.1,0-0.2,0.1-0.3,0.1
	l-0.1-0.1l1.2-0.7c0.4-0.2,0.8-0.4,1.2-0.5l0.9-0.4c0,0,0,0,0.1-0.1c0-0.1,0-0.1,0.1-0.1l-0.2-0.1c0,0-0.1-0.1-0.1-0.1
	c-0.1,0-0.1-0.1-0.2-0.1l-0.4-0.3c-0.1-0.1-0.2-0.1-0.2-0.2c0,0,0,0,0.1,0c0,0,0.1,0,0.1-0.1c0,0,0-0.1,0-0.1
	c0.2-0.1,0.4-0.2,0.5-0.3l-0.1,0l1.6-0.7l0,0c-0.4,0-0.8-0.1-1.1-0.3c-0.2-0.1-0.3-0.2-0.5-0.2l0,0c-0.1-0.1-0.2-0.2-0.3-0.2
	c-0.5-0.2-0.8-0.5-0.8-0.8c0.1-0.3,0.4-0.4,0.8-0.4l0.6-0.1c0.1,0,0.2,0,0.2,0c0,0,0.1,0,0.2,0c0.3-0.1,0.5-0.1,0.6-0.1
	c0.1,0,0.2,0,0.4-0.1c0.2,0,0.4-0.1,0.7-0.2l0.1,0c0-0.2,0-0.3,0.1-0.5l0,0c0,0,0-0.1-0.1-0.2c-0.1,0-0.2-0.1-0.2-0.2c0,0,0,0,0,0
	c0,0,0,0,0,0c0,0,0,0,0-0.1c0-0.1-0.1-0.1-0.1-0.1l0-0.1c0,0,0-0.1,0.1-0.1c0.2-0.2,0.4-0.4,0.7-0.5c0.1-0.1,0.3-0.1,0.4-0.1
	c0.9,0,1.5,0.3,2,0.9l0,0.1c0,0.1,0,0.2,0,0.2c0,0.1,0,0.2,0,0.3c0.2,0,0.3,0,0.5-0.1l0.5-0.1c0.1,0,0.2,0,0.3-0.1
	c0.1,0,0.2,0,0.3,0l1.4-0.1c0.1,0.1,0.1,0.1,0.2,0.1c0.1,0.1,0.3,0.2,0.4,0.3c0.1,0.1,0.2,0.2,0.3,0.3c0.1,0.1,0.2,0.2,0.3,0.4
	c0.1,0.2,0.2,0.4,0.2,0.5c0,0,0,0,0,0.1c0,0,0,0,0,0c-0.2,0.3-0.5,0.5-1,0.5c-0.1,0-0.3,0-0.4,0c-0.1,0-0.3,0-0.4,0l-0.1,0
	c0,0-0.1,0-0.1,0l-3.4,0.5c-0.2,0.1-0.3,0.2-0.2,0.3l0.1,0c0.6-0.2,1.2-0.3,1.9-0.3c0.2,0,0.6,0.1,1.1,0.4c0.5,0.2,0.8,0.5,0.9,0.9
	c-0.1,0.5-0.5,0.7-1.1,0.6l-0.1,0l-3.2,0.4c-0.1,0-0.1,0.1-0.2,0.1l-0.2,0.5l1.5-0.2c0.1-0.1,0.3-0.1,0.5-0.1
	c0.6-0.1,1.1-0.1,1.5-0.2c0.2,0,0.5,0,0.7,0c0.2,0,0.5,0,0.8,0c0.1-0.1,0.2-0.1,0.3-0.1c0.1,0,0.1,0,0.2,0c0.1,0,0.1,0,0.2,0
	c0.1,0,0.2,0,0.3-0.1c0.1,0.1,0.2,0.2,0.4,0.3c0.4,0.2,0.8,0.4,1.2,0.7c0.1,0.1,0.2,0.3,0.2,0.5c0,0.3-0.2,0.6-0.6,0.7
	c-0.1,0-0.3,0-0.4,0.1c-0.1,0-0.1,0-0.2,0c-0.5-0.1-1.2-0.1-1.9-0.2l-0.3,0c-0.1,0-0.1,0-0.1,0.1l2.2,2.2c0.2,0.3,0.5,0.5,0.9,0.7
	c0.4,0.2,0.7,0.3,1.1,0.5c0.2,0.1,0.4,0.2,0.7,0.3c0.3,0.1,0.6,0.2,0.9,0.3c0.3,0.1,0.7,0.2,0.9,0.4
	C428,177.5,428,177.5,428.1,177.5z"/>
<path fill="#4C1F19" d="M418.8,187.6L418.8,187.6c0,0,0.1,0,0.1,0.1l0,0.1l0.1,0c0.1-0.1,0.2-0.3,0.5-0.6c0.2-0.3,0.4-0.4,0.6-0.5
	c0.2-0.2,0.4-0.4,0.5-0.6c-0.3-0.2-0.6-0.3-1-0.3l-0.2,0c-0.1,0-0.1,0-0.1,0l-0.3,0.2l-0.2,0.7l-0.1,0L418.8,187.6z M415.1,192.7
	L415.1,192.7c0.4,0.3,0.6,0.7,0.7,1.3l0.3,0l1.4-0.3c0.2-0.1,0.6-0.5,0.9-1l0.2-0.2c-0.4,0.1-0.8,0.2-1.3,0.3c-0.1,0-0.2,0-0.2,0
	c-0.4,0-0.7,0-1,0.1C415.8,192.9,415.4,192.8,415.1,192.7L415.1,192.7z M410.4,200.8c0-0.1,0.1-0.1,0.2-0.1l0.2,0
	c0.1,0,0.3,0,0.3-0.1l3.4-0.6l1-0.1c0.1-0.1,0.1-0.2,0.1-0.4l0-0.4l-0.2,0c-0.1,0-0.2,0-0.2,0c-0.4-0.1-0.9-0.3-1.3-0.6
	c-0.4-0.3-0.6-0.6-0.6-0.8c0,0,0,0,0,0l0.1-0.1l2.4-0.7l0-0.8c-0.1-0.1-0.1-0.1-0.2-0.2l-0.2,0c-0.6-0.1-1-0.4-1.3-0.9
	c-0.2-0.5-0.4-0.8-0.4-1c-0.1-0.2-0.2-0.3-0.4-0.3c-0.2,0-0.3-0.3-0.4-0.6c0-0.3,0.1-0.5,0.2-0.8c0-0.1,0-0.2,0-0.3
	c0-0.1,0-0.2,0.1-0.2l0,0c0.1,0,0.3-0.1,0.7-0.4c0.2,0.3,0.4,0.6,0.4,0.7c0-0.1,0-0.2-0.1-0.2l0,0c1-0.4,2-0.7,3.1-0.8
	c0.1,0,0.1,0,0.1,0l1.6-0.2c0.1,0,0.2,0,0.3,0c0.4,0,0.9-0.1,1.3-0.1l0,0c0.4,0.1,0.7,0.3,0.8,0.4c0.1,0,0.2-0.2,0.5-0.4
	c0.3-0.2,0.4-0.4,0.5-0.6l-1.9,0l-5.1,0.4c-0.5,0.2-0.9,0.3-1.4,0.3c-0.6-0.2-1.2-0.4-1.8-0.6c-0.1,0-0.2,0-0.3,0.1
	c0.2,0.4,0.3,0.9,0.3,1.4c-0.2,0.5-0.3,0.8-0.5,1l0,0c0,0-0.1,0.1-0.3,0.3l-0.2,0.3c-0.2,0-0.4,0.1-0.5,0.1l-0.1-0.1
	c-0.1,0-0.2,0.1-0.3,0.1c-0.2-0.1-0.3-0.2-0.3-0.2l-0.1,0c-0.1,0-0.1,0-0.2,0h0c-0.1-0.1-0.2-0.3-0.3-0.5h0
	c-0.2-0.2-0.2-0.4-0.3-0.7l-0.1,0c0,0-0.1,0-0.1-0.1l0-0.3c0.1-0.3,0.4-0.6,0.8-0.9c0.4-0.3,0.7-0.7,0.7-1.2l0.2,0.1l0.3,0.1
	c0.1,0,0.3,0.1,0.4,0.2l0.1,0c0.3-0.1,0.6-0.3,0.8-0.4l3-0.6c-0.2-0.2-0.2-0.5-0.2-0.7l0.1-0.1c0-0.1,0-0.2-0.1-0.3h0l0-0.5
	c0-0.1,0-0.2,0-0.3l0-0.2c-0.7,0.2-1.2,0.4-1.5,0.8l0,0.4c0.1,0.6-0.2,1.2-0.9,1.5c0,0,0,0-0.1,0h0c-0.8-0.1-1.2-0.4-1.3-0.9
	c0,0,0-0.1,0-0.1c-0.1-0.2-0.2-0.5-0.2-0.9c0-0.1,0.1-0.1,0.2-0.2l0.7-0.6c0.1-0.2,0.2-0.4,0.3-0.5c0.4,0.2,0.7,0.4,1,0.8l0.2,0
	l1.6-0.6c0.1,0,0.1-0.1,0.1-0.2l0-0.3c0,0,0-0.1,0-0.1l-0.7-0.6c0,0,0.1-0.1,0.3-0.3c0.5-0.5,0.8-0.8,0.8-0.8c0,0,0.1,0,0.1,0
	c0.2,0,0.3-0.1,0.4-0.1l0.4,0c0.2,0,0.3,0.1,0.5,0.2l0.3,0c0.6,0,1,0.3,1.3,0.6c0.3,0.3,0.6,0.5,0.9,0.6c0.5,0,0.9-0.1,1.2-0.2
	c0.3-0.1,0.7-0.2,1.3-0.2c0.1,0,0.4,0.1,0.8,0.5l0.3,0.3c0.4,0.3,0.6,0.7,0.6,1c-0.1,0.3-0.2,0.5-0.6,0.6c-0.8,0.3-1.3,0.5-1.3,0.5
	c0,0-0.1,0-0.1,0c-0.3,0-0.5,0.1-0.5,0.1c-0.2,0-0.4-0.1-0.6-0.1c-0.2,0-0.4,0-0.6,0l-0.1,0c-0.1,0-0.1,0-0.2,0c0,0,0,0-0.1,0
	l-0.1,0.1c0,0,0,0,0,0h0c0,0-0.1,0-0.1,0l-0.2,0c-0.5,0.1-0.8,0.2-0.7,0.3l0,0l1,0l3.5-0.2c0,0,0.1,0,0.2,0l0.4,0
	c1,0.1,1.8,0.6,2.4,1.3l0.2,0.3c0.5,0.4,0.8,0.8,0.8,1.2c-0.1,0.3-0.3,0.5-0.6,0.5l-1,0c-0.1,0-0.1,0-0.1,0l-0.1,0c0,0,0,0,0,0h0
	c-0.1,0-0.1,0-0.1,0c0,0-0.1,0-0.1,0c-0.2,0-0.3,0-0.3,0.1l-0.2-0.1c-0.1,0-0.2,0-0.2,0c-0.2,0.1-0.4,0.1-0.7,0.2l-0.1,0l-0.3,0
	l-0.6-0.1l0-0.1c-0.1,0-0.2,0-0.2,0c-0.1,0-0.1,0-0.1-0.1l-0.2,0.1c-0.1,0-0.1,0.1-0.1,0.1c0.2,0.3,0.3,0.6,0.3,0.8l0,0.3l-0.2,0.2
	c-0.2,0.2-0.3,0.3-0.4,0.2c-0.1,0.1-0.3,0.2-0.6,0.3c0,0,0.1,0,0.1,0.1c-0.1,0.1-0.2,0.1-0.3,0.1l-0.2,0.2l0.1,0
	c-0.1,0.1-0.2,0.1-0.2,0.1h0c-0.1,0-0.2,0.1-0.4,0.3l0,0.5l-0.1,0.1c0,0.1,0,0.2-0.1,0.2l-0.1,0c-0.2,0.1-0.3,0.2-0.4,0.2l-0.1,0
	l-0.7,0c-0.1,0-0.1,0-0.1,0l0,0.1c0,0.1,0,0.2,0,0.4l0,0.1c-0.1,0.1-0.2,0.1-0.2,0.2l0.4,0c0.2,0,0.5-0.1,0.7-0.1
	c0.3,0,0.6,0.1,1.1,0.4c0.5,0.3,0.8,0.5,1,0.7l0.1,0.2c0.1,0.2,0.1,0.3,0.1,0.4c-0.1,0.2-0.3,0.3-0.7,0.4c-0.4,0.1-0.6,0.1-0.6,0.2
	h0c-0.1,0-0.1,0-0.1,0c-0.2,0-0.4-0.1-0.5-0.1c-0.3,0-0.5,0.1-0.7,0.1l0,0c0,0-0.1,0-0.1,0l0,0l-0.2,0c-0.1,0-0.3,0.1-0.5,0.1
	l-0.1,0.1l0,0.7l0.1,0l0.2,0c0.7,0,1.3,0,1.9,0l1.4,0c0.3,0,0.5,0,0.5,0.1l1.4,1.2c0.1,0.2,0.1,0.3,0.2,0.5l0.1,0.1l0,0.8
	c-0.1,0.1-0.5,0.2-1.1,0.2c-0.3,0-0.6-0.1-0.7-0.3l-0.3-0.1c-0.2,0-0.3-0.1-0.3,0l-0.1,0c0,0-0.1-0.1-0.2-0.1
	c-0.1,0-0.2,0.1-0.3,0.2l-0.1,0c0,0,0-0.1,0-0.1c-0.1,0-0.2,0.1-0.2,0.1c-0.1,0-0.1,0-0.1,0l0.1,0l-0.1,0c-0.1,0-0.2,0.1-0.4,0.1
	c0-0.1,0.1-0.1,0.2-0.2l-0.1,0c-0.2,0-0.3,0-0.5,0.1l-0.5,0c0,0-0.1,0-0.1,0c0,0,0,0,0.1-0.1l-0.1,0c-0.3,0-0.6,0.1-0.8,0.1
	c-0.3,0-0.4,0-0.4-0.1c0,0,0,0-0.1,0.1c0,0,0,0-0.1,0c-0.2,0.1-0.4,0.1-0.5,0.1l-0.1,0c-0.1,0-0.1,0-0.2,0c-0.1,0-0.1,0-0.1,0h0
	c0,0,0,0-0.1,0c-0.1,0-0.2,0-0.2,0c-0.7,0-1.2,0.1-1.4,0.1c-0.1,0-0.1,0-0.2,0l-0.1,0l-2.3,0.3l-0.2,0c-0.6,0-1.1-0.3-1.6-0.7
	C410.8,201.4,410.5,201.1,410.4,200.8z"/>
<path fill="none" stroke="#4C1F19" stroke-width="1.4173" stroke-linecap="round" stroke-linejoin="round" stroke-miterlimit="10" d="
	M358,240.8c-1.1-4.1-3.5-7.7-6.7-10c-0.5-0.3-1-0.7-1.6-0.6c-0.5,0.1-1,0.4-1.3,0.8c-4.9,4.8-6.4,12.9-4.4,19.7
	c0.4,1.3,0.9,2.7,1.8,3.7c0.9,1.1,2.1,2,3.2,2.8c4.1,2.8,8.3,5.7,13,6.6c0.6,0.1,1.4-0.1,1.3-0.7"/>
<path fill="none" stroke="#4C1F19" stroke-width="1.4173" stroke-linecap="round" stroke-linejoin="round" stroke-miterlimit="10" d="
	M483.9,242.6c1.2-4,3.7-7.6,7-9.8c0.5-0.3,1-0.6,1.6-0.6c0.5,0.1,0.9,0.5,1.3,0.8c4.7,4.9,6.1,13.1,3.8,19.8c-0.4,1.3-1,2.6-1.9,3.7
	c-0.9,1.1-2.1,1.9-3.3,2.7c-4.2,2.7-8.5,5.4-13.2,6.3c-0.6,0.1-1.4-0.2-1.3-0.8"/>
<path fill="none" stroke="#4C1F19" stroke-width="1.4173" stroke-linecap="round" stroke-linejoin="round" stroke-miterlimit="10" d="
	M483,248.5c-2.5,14.8-11.5,31.7-23.7,38.7c-2.8,1.6-27.2,10.8-38.9,10.2c-11.7,0.3-35.9-9.6-38.6-11.3c-12-7.4-20.6-24.5-22.6-39.4"
	/>
<path fill="none" stroke="#4C1F19" stroke-width="1.4173" stroke-linecap="round" stroke-linejoin="round" stroke-miterlimit="10" d="
	M375,202.8c-5.3,6.7-8.3,22.2-8.4,31.1c-0.2,0.2-0.4-0.2-0.5-0.4c-0.9-3.2-1.8-6.3-2.6-9.5c-0.6-2.3-2.3-5.4-2.5-7.8"/>
<path fill="none" stroke="#4C1F19" stroke-width="1.4173" stroke-linecap="round" stroke-linejoin="round" stroke-miterlimit="10" d="
	M364.7,208.7c-3.4,4.6-4.9,10.6-5.1,16.5c-0.2,5.9-2.8,9.8-1.6,15.6"/>
<path fill="none" stroke="#4C1F19" stroke-width="1.4173" stroke-linecap="round" stroke-linejoin="round" stroke-miterlimit="10" d="
	M349.3,220.2c-1.3,1.8-1.8,4-2.3,6.1c-0.4,1.8-0.6,4.4,0.3,6"/>
<path fill="none" stroke="#4C1F19" stroke-width="1.4173" stroke-linecap="round" stroke-linejoin="round" stroke-miterlimit="10" d="
	M349.4,230.3c1-3.1,3.4-6.2,6-8"/>
<path fill="none" stroke="#4C1F19" stroke-width="1.4173" stroke-linecap="round" stroke-linejoin="round" stroke-miterlimit="10" d="
	M396.9,208.7c-1.6,7.1-5.3,20,16,27.8"/>
<path fill="none" stroke="#4C1F19" stroke-width="1.4173" stroke-linecap="round" stroke-linejoin="round" stroke-miterlimit="10" d="
	M405.8,218.2c-0.2,5.9,2,11.6,5.4,16.1c3.4,4.5,7.9,7.9,12.6,10.7c0.3-4.9,1.9-9.8,4.5-13.8"/>
<path fill="none" stroke="#4C1F19" stroke-width="1.4173" stroke-linecap="round" stroke-linejoin="round" stroke-miterlimit="10" d="
	M432.6,226.8c0.3,2.5,0.1,5.2-1,7.5c-1.1,2.3-4.5,4.1-6.7,4.8"/>
<path fill="none" stroke="#4C1F19" stroke-width="1.4173" stroke-linecap="round" stroke-linejoin="round" stroke-miterlimit="10" d="
	M360.7,201.8c4.2-7.6,12-12.6,19.3-17.3c7.3-4.7,15.1-8.8,21.5-14.7"/>
<path fill="none" stroke="#4C1F19" stroke-width="1.4173" stroke-linecap="round" stroke-linejoin="round" stroke-miterlimit="10" d="
	M480.2,206.2c-12.5-6.1-24.6-17.5-33.3-28.2c-2.9-3.6-5.7-7.5-9.8-9.6"/>
<path fill="none" stroke="#4C1F19" stroke-width="1.4173" stroke-linecap="round" stroke-linejoin="round" stroke-miterlimit="10" d="
	M377.1,202.2c0,0-2.8,0.5-5.4,2c-7.7,4.5-15.6,10.2-24.6,9.9c2.4,0.5,4.9-1.7,6.3-3.7c1.4-2,2.3-4.3,3.9-6.1c2.4-2.7,6.3-3.9,10-3.9
	c3.7,0,7.3,1,10.8,2.1c15.3,4.6,30.3,10,45,16.2c15.7-11.2,35.4-14.9,54.2-13.1c2.2,0.2,5,1,5.3,3.2c0.3,2.5-2.8,3.8-5.3,4.2
	c-7,1-16.5-4.3-23.3-6.4"/>
<path fill="none" stroke="#4C1F19" stroke-width="1.4173" stroke-linecap="round" stroke-linejoin="round" stroke-miterlimit="10" d="
	M344.1,218.7c0.3-2-0.2-8.9,1.2-10.3c8.7-9.1,18.1-17.7,28-25.6"/>
<path fill="none" stroke="#4C1F19" stroke-width="0.75" stroke-linecap="round" stroke-linejoin="round" stroke-miterlimit="10" d="
	M441.9,163c-23.3-6.1-39.7-3.8-47.1-0.4"/>
<path fill="none" stroke="#4C1F19" stroke-width="0.75" stroke-linecap="round" stroke-linejoin="round" stroke-miterlimit="10" d="
	M437.3,163.9c-23.3-6.1-34.2-1.8-42.5-1.4"/>
<path fill="none" stroke="#4C1F19" stroke-width="1.4173" stroke-linecap="round" stroke-linejoin="round" stroke-miterlimit="10" d="
	M401.5,161.9c-9.9,0-14.2,3.4-22.4,8.9c-8.2,5.5-15.4,12.3-23.3,18.2c-11.8,8.9-25.2,15.8-39.3,20.3c8.1,5,17.5,9,26.8,11.3"/>
<path fill="none" stroke="#4C1F19" stroke-width="1.4173" stroke-linecap="round" stroke-linejoin="round" stroke-miterlimit="10" d="
	M316.4,209.4c-0.6,1.6,1.2,3.8,2.6,4.9c4.1,3.1,8.3,6,12.6,8.8c2.8,1.8,7.3,4.4,10.6,4.7"/>
<path fill="none" stroke="#4C1F19" stroke-width="1.4173" stroke-linecap="round" stroke-linejoin="round" stroke-miterlimit="10" d="
	M347.1,214.1c-7.9,9.8-4.9,17.7-1.7,21.1"/>
<path fill="none" stroke="#4C1F19" stroke-width="1.4173" stroke-linecap="round" stroke-linejoin="round" stroke-miterlimit="10" d="
	M434.8,165c7-4,16-1.8,23.4,1.5c7.2,3.2,14.1,7.4,20.2,12.3c12.8,10.3,23.7,26.1,39.9,29.6"/>
<path fill="none" stroke="#4C1F19" stroke-width="1.4173" stroke-linecap="round" stroke-linejoin="round" stroke-miterlimit="10" d="
	M491.8,232.3c6.3-1.7,10.2-4.1,14.9-8.5c4.7-4.4,7.9-10.1,11.7-15.2c-7.2,2.6-13.9,7-19,12.7c-1.2,1.3-2.3,2.7-3.7,3.8
	c-2.5,1.9-9,1.6-12.1,1.6"/>
<path fill="none" stroke="#4C1F19" stroke-width="1.4173" stroke-linecap="round" stroke-linejoin="round" stroke-miterlimit="10" d="
	M476.6,213.6c6,4.9,9.4,17.9,8.7,25.5"/>
<path fill="none" stroke="#4C1F19" stroke-width="1.4173" stroke-linecap="round" stroke-linejoin="round" stroke-miterlimit="10" d="
	M469.4,212.3c5.3,2.4,11.2,12.2,14.8,16.7"/>
<path fill="none" stroke="#4C1F19" stroke-width="1.4173" stroke-linecap="round" stroke-linejoin="round" stroke-miterlimit="10" d="
	M490.9,226.5c0.5,1.4,0.8,4.4,0.6,5.9"/>
<path fill="none" stroke="#4C1F19" stroke-width="1.4173" stroke-linecap="round" stroke-linejoin="round" stroke-miterlimit="10" d="
	M394.4,162.3c-2-2.9-5.8-8.5-7.1-11.8c-0.6-1.5-1.2-3-1.2-4.6c-0.1-3.4,1.9-6.5,4.5-8.7c6.2-5.2,15-5.7,23.1-5.9
	c8-0.2,16.5-0.1,23.5,3.8c5.1,2.8,9.1,7.7,10.4,13.3c1.2,5.6-1.2,10.8-5.5,14.6"/>
<path fill="none" stroke="#4C1F19" stroke-width="1.4173" stroke-linecap="round" stroke-linejoin="round" stroke-miterlimit="10" d="
	M432.5,231.3c0,0,11.9-5.3,6-20.9"/>
<path fill="none" stroke="#4C1F19" stroke-width="1.4173" stroke-linecap="round" stroke-linejoin="round" stroke-miterlimit="10" d="
	M353.9,242.8c-0.6-1.2-2.5-1.2-3.5-0.3c-1,0.9-1.2,2.4-1.2,3.8c0,1.5,0.3,3,1,4.3c0.7,1.3,2.1,2.4,3.6,2.5"/>
<path fill="none" stroke="#4C1F19" stroke-width="1.4173" stroke-linecap="round" stroke-linejoin="round" stroke-miterlimit="10" d="
	M488.9,242.3c0.1-0.5,0.7-0.8,1.2-0.8c0.5,0,1,0.4,1.3,0.7c1.5,1.6,1.5,4,1.2,6.1c-0.3,1.6-0.8,3.2-1.7,4.6c-0.9,1.4-2.3,2.5-3.9,3
	c-0.4,0.1-0.9,0-0.8-0.4"/>
<path fill="none" stroke="#4C1F19" stroke-width="1.4173" stroke-linecap="round" stroke-linejoin="round" stroke-miterlimit="10" d="
	M432.6,160.3c-0.7-3.7,3-6.7,2.9-10.8c-0.2-8-7.2-14.3-15.7-14.4c-8.5-0.1-15.9,6-16.5,14c-0.3,4.1,3.2,7.2,2.3,10.9
	c-1.6,6.5-10.2,11-11.1,19.7c-1.5,14.3,9,26.9,23.5,27c14.4,0,25.4-12.4,24.7-26.6C442.1,171.5,433.8,166.8,432.6,160.3"/>
<path fill-rule="evenodd" clip-rule="evenodd" fill="#5E4137" d="M416.3,261.2c0,1.5,4.9,5.1,8.6,0.8c0.2-0.2,0.7-1,0.7-1.2
	C425.6,258.8,416.3,259.5,416.3,261.2"/>
<path fill-rule="evenodd" clip-rule="evenodd" fill="#23100F" d="M387.4,237.5c7.3-0.6,12.2,7.5,9.4,13.4c0.2-2.8,0.5-5.4-1.7-8.4
	c-1.1-1.5-2.2-2.6-3.7-3.4c-2.2-1.3-2.2-0.9-3.4-1.2C387.3,237.6,387.9,237.8,387.4,237.5 M386.5,241c1.6-1.9,2.9,0,2.3,1
	C387.9,243.3,386.5,242.6,386.5,241z M382,252.5c-2.8-2.6,1.1-6.5,3.6-4.4C388.8,250.7,384.5,254.9,382,252.5z M380.6,239.1l1.6-1.2
	c2-1.2,4.5-1.8,7.3-1.4c3.1,0.5,5.3,2.1,7.4,4.9c2.9,3.9,2,10.9-1.9,13.7l-1.7,1.3c-3.8,2.9-10.8,1.7-13.7-2.2l-0.7-0.9
	C375.6,248.8,376.7,242.6,380.6,239.1z M392.4,249.7c0.3-1.5,0.5-1.4,1.8-1.4c1.3,1.6,0.4,2.3-1.2,2.3L392.4,249.7z"/>
<path fill-rule="evenodd" clip-rule="evenodd" fill="#FFFEFE" d="M382,252.5c2.5,2.4,6.8-1.8,3.6-4.4
	C383.1,246,379.2,249.9,382,252.5"/>
<path fill-rule="evenodd" clip-rule="evenodd" fill="#FDFEFE" d="M387.4,237.5c0.6,0.3,0,0.1,0.7,0.3c6.9,2,9.3,6,8.7,13.1
	C399.6,245,394.6,236.9,387.4,237.5"/>
<path fill-rule="evenodd" clip-rule="evenodd" fill="#FFFEFE" d="M386.5,241c-0.7,1.4,1.5,2.3,2.3,1
	C389.3,241,387.5,238.7,386.5,241"/>
<path fill-rule="evenodd" clip-rule="evenodd" fill="#FFFEFE" d="M393,250.6c1.6,0.1,2.5-0.7,1.2-2.3c-1.4,0-1.5-0.1-1.8,1.4
	L393,250.6z"/>
<path fill-rule="evenodd" clip-rule="evenodd" fill="#4C1F19" d="M379.1,227c0,0.9,0.8,1.1,2.3,1c2.5-0.2,4.2-0.4,6.9-0.1
	c5.6,0.6,2.2-3.1-2.7-3.1C382.9,224.8,379.1,225.7,379.1,227"/>
<path fill-rule="evenodd" clip-rule="evenodd" fill="#4C1F19" d="M450.6,227c0,0.9,0.8,1.1,2.3,1c2.5-0.2,4.2-0.4,6.9-0.1
	c5.6,0.6,2.2-3.1-2.7-3.1C454.4,224.8,450.6,225.7,450.6,227"/>
<path fill-rule="evenodd" clip-rule="evenodd" fill="#CC382C" d="M416.3,281c0.3,3,2.4,7.2,5.7,6.1c2.6-0.8,4.1-5,3.8-8.5
	c-0.3-3-2.3-7.3-5.7-6.2C417.4,273.3,415.9,277.5,416.3,281"/>
<g>
	<defs>
		<path id="SVGID_1_" d="M416.3,281c0.3,3,2.4,7.2,5.7,6.1c2.6-0.8,4.1-5,3.8-8.5c-0.3-3-2.3-7.3-5.7-6.2
			C417.4,273.3,415.9,277.5,416.3,281"/>
	</defs>
	<clipPath id="SVGID_2_">
		<use xlink:href="#SVGID_1_"  overflow="visible"/>
	</clipPath>
	<path clip-path="url(#SVGID_2_)" fill-rule="evenodd" clip-rule="evenodd" fill="#E55E54" d="M406.4,293.2c0,4.7,0.8,8,4.2,11.3
		c9.4,9.4,24.7,1.7,24.7-9.2c0-4.7-0.8-8-4.2-11.3C421.7,274.6,406.4,282.3,406.4,293.2"/>
</g>
<path fill-rule="evenodd" clip-rule="evenodd" fill="#23100F" d="M455.8,237.6c7.3,0.3,11.2,8.9,7.8,14.4c0.6-2.8,1.1-5.3-0.6-8.6
	c-0.9-1.6-1.9-2.8-3.2-3.9c-2-1.5-2.1-1.1-3.2-1.6C455.7,237.6,456.3,237.9,455.8,237.6 M454.5,240.9c1.8-1.7,2.9,0.3,2.1,1.2
	C455.7,243.3,454.4,242.5,454.5,240.9z M448.7,251.8c-2.5-2.9,1.9-6.4,4.1-4C455.6,250.8,450.9,254.5,448.7,251.8z M448.9,238.3
	l1.7-1c2.1-1,4.7-1.2,7.4-0.5c3.1,0.8,5,2.7,6.7,5.7c2.4,4.2,0.7,11-3.5,13.4l-1.8,1.1c-4.2,2.4-10.9,0.4-13.3-3.8l-0.6-1
	C442.7,247.4,444.6,241.3,448.9,238.3z M459.3,250.3c0.5-1.4,0.6-1.3,2-1.2c1.1,1.7,0.1,2.4-1.5,2.1L459.3,250.3z"/>
<path fill-rule="evenodd" clip-rule="evenodd" fill="#FFFEFE" d="M448.7,251.8c2.2,2.7,7-1,4.1-4
	C450.5,245.4,446.2,248.9,448.7,251.8"/>
<path fill-rule="evenodd" clip-rule="evenodd" fill="#FDFEFE" d="M455.8,237.6c0.5,0.3,0,0.1,0.7,0.4c6.6,2.8,8.5,7.1,7.1,14
	C467,246.4,463.1,237.8,455.8,237.6"/>
<path fill-rule="evenodd" clip-rule="evenodd" fill="#FFFEFE" d="M454.5,240.9c-0.8,1.4,1.2,2.4,2.1,1.2
	C457.3,241.2,455.8,238.8,454.5,240.9"/>
<path fill-rule="evenodd" clip-rule="evenodd" fill="#FFFEFE" d="M459.9,251.2c1.6,0.2,2.5-0.4,1.5-2.1c-1.4-0.1-1.5-0.2-2,1.2
	L459.9,251.2z"/>
<path fill="#F0DACB" d="M503.2,264.7c7.1-0.3,10.3,1.6,13.8,6.7c4.6,6.9-3.3,16.8-10.9,16.7c-2.4,0-4.6-0.6-5.8-1.8
	c-0.4-0.8-0.4-1-1-1.7c-0.5-0.6-0.2-0.3-0.6-0.7c-0.8-0.6-0.2-0.3-1.3-0.6l-0.6-0.5c-1.1-1-1.6-2-3.8-2.7c-1-0.3-2.5-0.4-3.1-0.7
	C484.4,276.9,489.9,265.3,503.2,264.7z"/>
<path fill="none" stroke="#4C1F19" stroke-width="1.4173" stroke-linecap="round" stroke-linejoin="round" stroke-miterlimit="10" d="
	M503.2,264.7c7.1-0.3,10.3,1.6,13.8,6.7c4.6,6.9-3.3,16.8-10.9,16.7c-2.4,0-4.6-0.6-5.8-1.8c-0.4-0.8-0.4-1-1-1.7
	c-0.5-0.6-0.2-0.3-0.6-0.7c-0.8-0.6-0.2-0.3-1.3-0.6l-0.6-0.5c-1.1-1-1.6-2-3.8-2.7c-1-0.3-2.5-0.4-3.1-0.7
	C484.4,276.9,489.9,265.3,503.2,264.7z"/>
<path fill-rule="evenodd" clip-rule="evenodd" fill="#FFFFFF" d="M157.5,324L157.5,324c0-0.1,0-0.1,0.1-0.1c0.2,0,0.5,0,1,0
	c0,0,0.1,0,0.1,0.1c0,0.1-0.1,0.2-0.2,0.2c-0.3,0-0.6,0-0.8,0C157.5,324.1,157.5,324.1,157.5,324 M157.4,323.5L157.4,323.5
	c0-0.1,0-0.1,0.1-0.1c0.3,0,0.6,0,0.9,0c0.1,0,0.2,0.1,0.2,0.2c0,0.1,0,0.1-0.1,0.1c-0.2,0-0.3,0-0.5,0c-0.2,0-0.3,0-0.5,0
	C157.5,323.6,157.5,323.5,157.4,323.5z M158.6,324.3c0.2,0,0.3-0.2,0.3-0.4c0-0.3,0-0.5,0-0.6c0-0.2-0.1-0.3-0.3-0.3
	c-0.6,0-1,0-1.2-0.1c-0.3,0-0.4,0-0.4,0.2c0,0.4,0.1,0.7,0,1c-0.1,0.4-0.4,0.9-0.9,1.3c-0.1,0.1-0.2,0.2-0.1,0.2
	c0.1,0.2,0.2,0.2,0.4,0c0.3-0.3,0.6-0.7,0.8-1.2c0-0.1,0.1-0.2,0.4-0.2C157.8,324.3,158.1,324.3,158.6,324.3z"/>
<path fill-rule="evenodd" clip-rule="evenodd" fill="#FFFFFF" d="M158.8,325.3L158.8,325.3c0,0.1-0.1,0.1-0.2,0.1
	c-0.1,0-0.2,0-0.4,0c-0.1,0-0.2,0-0.3,0c-0.1,0-0.2,0-0.2-0.1c0,0,0-0.1,0-0.2c0-0.2,0.1-0.2,0.3-0.3c0.2,0,0.3,0,0.5,0
	c0.1,0,0.2,0,0.2,0.1C158.8,325.2,158.8,325.3,158.8,325.3 M158.7,324.7c-0.1,0-0.3,0.1-0.5,0.1c-0.2,0-0.4,0-0.4,0
	c-0.1,0-0.2,0-0.3,0.2c0,0.3,0,0.5,0,0.8c0,0.2,0.2,0.3,0.3,0.2c0.1,0,0.4-0.1,0.9-0.1c0,0,0,0,0,0c0.2,0,0.3-0.1,0.3-0.2
	c0,0,0-0.1,0-0.1c0-0.1,0.1-0.2,0.1-0.4C159.2,324.8,159,324.7,158.7,324.7z"/>
<path fill-rule="evenodd" clip-rule="evenodd" fill="#FFFFFF" d="M158.3,321.9c-0.1,0-0.1-0.1-0.1-0.2c0-0.1-0.1-0.2-0.2-0.1
	c-0.1,0.3-0.6,0.6-1.6,1c-0.1,0-0.1,0.1-0.1,0.2c0.1,0.1,0.2,0.2,0.4,0.1c0.6-0.3,1-0.6,1.1-0.7c0.1-0.1,0.2-0.1,0.4,0
	c0.2,0,0.4,0.2,0.8,0.4c0.1,0.1,0.2,0.1,0.2,0c0-0.1,0-0.1-0.1-0.2C158.8,322.2,158.5,322,158.3,321.9"/>
<path fill-rule="evenodd" clip-rule="evenodd" fill="#FFFFFF" d="M158.4,322.8c0.2,0,0.3,0,0.3-0.1c0-0.1-0.2-0.2-0.4-0.2
	c-0.3,0-0.5,0-0.5,0c-0.2,0-0.4,0-0.4,0.2c0,0.1,0.1,0.1,0.3,0C158,322.7,158.2,322.7,158.4,322.8"/>
<path fill-rule="evenodd" clip-rule="evenodd" fill="#FFFFFF" d="M161.4,322.2c0-0.3,0-0.5-0.2-0.5c-0.1,0-0.2,0.1-0.2,0.4
	c0,0.3,0,0.5,0,0.8c0,0.2,0,0.5,0,0.7c0,0.1,0,0.1-0.1,0.1c-0.3,0.1-0.5,0.1-0.7,0.1c-0.1,0-0.1,0-0.1-0.1c0-0.1,0.1-0.3,0.1-0.5
	c0-0.2-0.1-0.3-0.3-0.4c-0.1,0-0.2,0.1-0.1,0.3c0.1,0.4,0,0.7-0.1,0.8c-0.1,0.2-0.1,0.3,0,0.4c0.1,0.1,0.2,0.1,0.3-0.1
	c0.2-0.2,0.5-0.4,1-0.3c0,0,0.1,0,0.1,0.1c0.1,0.6,0,1-0.3,1.2c-0.2,0.2-0.5,0.3-0.8,0.4c-0.1,0.1-0.1,0.1,0,0.3
	c0.3,0.2,0.7,0,1.3-0.6c0.2-0.3,0.3-0.7,0.2-1.4c0-0.2,0-0.4,0-0.8C161.4,322.7,161.4,322.4,161.4,322.2"/>
<path fill="#FFFFFF" d="M154.1,324.5L154.1,324.5c-0.3,0-0.5,0.1-0.5,0.3c0,0,0,0.1,0,0.1c0,0.1,0,0.2,0,0.3c0,0.2,0.1,0.3,0.4,0.2
	c0,0,0.2,0,0.5,0c0.1,0,0.2,0,0.3,0c0.2,0,0.3-0.1,0.3-0.3l0-0.2c0-0.1,0-0.2,0-0.2c0-0.1-0.1-0.2-0.3-0.2c-0.2,0-0.3,0-0.4,0
	C154.2,324.5,154.2,324.5,154.1,324.5 M153.7,324.2L153.7,324.2c0.4,0,0.9,0,1.4,0c0.3,0,0.4,0.1,0.4,0.3l0,0.4c0,0.3,0,0.4,0,0.4
	c0,0.4-0.2,0.5-0.5,0.5c-0.3,0-0.5,0-0.7,0c-0.2,0-0.3,0-0.4,0c-0.3,0.1-0.5,0-0.5-0.3c0-0.1,0-0.2,0-0.4c0-0.2,0-0.4,0-0.7
	C153.3,324.3,153.4,324.2,153.7,324.2z M154.3,321.7L154.3,321.7c0.1,0.1,0.2,0.2,0.1,0.4c-0.1,0.2-0.3,0.5-0.6,0.9
	c-0.1,0.1-0.1,0.1-0.1,0.2c-0.1,0.1-0.1,0.1,0,0.2c0,0,0.1,0,0.2,0c0,0,0.2,0,0.5,0l0.5,0c0.2,0,0.2-0.1,0.1-0.2
	c0,0-0.1-0.1-0.2-0.3c-0.1-0.1-0.1-0.2-0.2-0.3c-0.1-0.1-0.1-0.2,0-0.2c0,0,0.1,0,0.2,0.1c0.2,0.3,0.4,0.5,0.6,0.8
	c0.1,0.3,0.1,0.4-0.2,0.4c-0.1,0-0.2,0-0.3,0c-0.5,0-1,0-1.3,0.1c-0.3,0-0.5-0.1-0.4-0.4c0.1-0.1,0.2-0.3,0.3-0.5
	c0.2-0.3,0.4-0.6,0.5-0.8C154.1,321.8,154.2,321.7,154.3,321.7z M152.1,323.6L152.1,323.6c-0.3,0-0.5,0-0.6,0
	c-0.1,0.2-0.2,0.4-0.2,0.5c0,0.1,0.2,0.3,0.4,0.4c0.2-0.2,0.4-0.4,0.5-0.7c0-0.1,0-0.1,0-0.1C152.2,323.7,152.2,323.6,152.1,323.6z
	 M151.6,323.4h0.7c0.3,0,0.4,0.1,0.4,0.4c-0.2,0.4-0.4,0.7-0.6,0.9c0.2,0.1,0.4,0.3,0.7,0.5c0.2,0.2,0.3,0.3,0.2,0.4
	c-0.1,0.1-0.3,0.1-0.4-0.1c-0.5-0.4-0.8-0.6-0.8-0.6c-0.4,0.3-0.7,0.6-1,0.6c-0.2,0.1-0.4,0.1-0.4-0.1c-0.1-0.1,0-0.2,0.2-0.3
	c0.3-0.1,0.6-0.3,0.9-0.5c-0.3-0.2-0.5-0.4-0.5-0.5c0-0.1,0.1-0.3,0.2-0.6c-0.2,0-0.4,0-0.5,0c-0.2,0-0.3,0-0.3-0.1
	c0.1-0.2,0.2-0.3,0.4-0.3c0.1,0,0.3,0,0.5,0c0.1-0.2,0.2-0.6,0.3-1.2c0-0.1,0.1-0.2,0.1-0.3c0-0.2,0.1-0.3,0.3-0.2
	c0.2,0.1,0.2,0.2,0.2,0.4c-0.1,0.1-0.2,0.4-0.3,0.8C151.7,323.1,151.6,323.3,151.6,323.4z"/>
<path fill="#FFFFFF" d="M164.8,322.2l0,0.7c0,0,0,0,0,0c0.1,0,0.4,0,0.7,0c0.7,0,1.2,0,1.5,0c0,0,0.1,0,0.1,0c0,0,0,0.1,0,0.1
	c-0.2,0.2-0.5,0.3-0.8,0.2c-0.1,0-0.6-0.1-1.5-0.1c0,0-0.1,0,0,0.1c0,1,0,1.7-0.2,2c-0.3,0.5-0.7,0.8-1.5,0.8
	c-0.2,0-0.4-0.1-0.4-0.2c-0.1-0.1,0-0.2,0.2-0.2c0.6,0.1,1.1-0.1,1.3-0.6c0.1-0.1,0.1-0.3,0.1-0.6c0-0.3,0-0.6,0-1.2
	c0,0,0-0.1,0-0.1c-0.5,0-0.8,0.1-1.2,0.1c-0.3,0-0.5,0.1-0.6,0.1c-0.3,0.1-0.5,0.1-0.6,0.1c0-0.2,0.1-0.4,0.5-0.5c0.2,0,0.4,0,0.7,0
	c0.3,0,0.7,0,1.1,0c0,0,0,0,0,0l0-0.3c0-0.2,0-0.3,0-0.3c0-0.2-0.1-0.2-0.2-0.2c-0.4,0-0.7,0-0.9,0.1c0,0,0,0,0,0
	c-0.2,0.1-0.3,0.1-0.3,0c0.1-0.2,0.2-0.3,0.4-0.3c0.1,0,0.4,0.1,0.7,0c0.8,0,1.3,0,1.7,0c0,0,0.1,0,0.1,0c0,0,0,0.1,0,0.1
	c-0.1,0.2-0.2,0.2-0.3,0.1c-0.1,0-0.2,0-0.5,0c-0.1,0-0.1,0-0.2,0C164.9,321.9,164.8,322,164.8,322.2"/>
<path fill="#FFFFFF" d="M169.1,322.7v2c0,0.1,0,0.2,0,0.3c0,0.2,0,0.3,0,0.3c0,0.2-0.1,0.3-0.2,0.3c-0.2,0-0.3-0.1-0.3-0.4
	c0,0,0-0.1,0-0.2c0-0.1,0.1-0.2,0.1-0.2v-2.5c-0.1,0.1-0.2,0.2-0.5,0.3c0,0,0,0-0.1,0c-0.1,0.1-0.3,0.1-0.3,0.1
	c-0.2-0.1-0.2-0.2-0.2-0.3c0,0,0.1-0.1,0.2-0.1c0.1,0,0.1,0,0.1,0c0.2,0,0.4-0.1,0.5-0.2c0,0,0,0,0.1-0.1c0,0,0.1,0,0.1-0.1
	c0,0,0-0.1,0-0.1c0-0.1,0-0.1,0-0.2c0,0,0,0,0.1,0c0.1,0,0.2,0.1,0.3,0.1c0.1,0,0.1,0.1,0.1,0.2c0,0.1,0,0.2-0.1,0.2
	C169.1,322.4,169.1,322.5,169.1,322.7"/>
<path fill="#FFFFFF" d="M172.8,324.5L172.8,324.5c-0.1-0.6-0.5-0.9-1.1-1c-0.7,0.1-1.2,0.4-1.3,0.9c0.1,0.7,0.5,1,1.3,1
	C172.4,325.5,172.7,325.2,172.8,324.5 M170.1,324.2c0-1.5,0.5-2.3,1.5-2.3c0.4,0,0.7,0.1,1,0.2c0.1,0,0.2,0,0.4,0c0,0,0,0,0,0.1
	c0,0.4-0.1,0.5-0.4,0.5c0,0-0.1,0-0.2-0.1c0-0.1-0.1-0.1-0.1-0.1c-0.2-0.1-0.4-0.2-0.8-0.2c-0.7,0-1,0.6-1.2,1.6c0,0,0,0,0.1,0
	c0.4-0.3,0.8-0.5,1.2-0.5c0.8,0.1,1.3,0.5,1.4,1.2c-0.1,0.8-0.5,1.2-1.4,1.2C170.7,325.8,170.2,325.2,170.1,324.2z"/>
<path fill="#FFFFFF" d="M173.8,324.6l1.7-0.1c0-0.4,0-0.8,0-1.2c0,0,0-0.1,0-0.2c0-0.1,0-0.2,0-0.2c0,0,0,0,0-0.1
	c0.3,0.1,0.4,0.2,0.4,0.4c0,0,0,0,0,0c-0.1,0.2-0.1,0.6-0.1,1.1v0.2c0.1,0,0.2,0,0.3,0c0.1,0,0.2,0,0.3-0.1c0,0,0,0,0,0.1
	c-0.1,0.2-0.2,0.4-0.4,0.4c0,0-0.1,0-0.3,0v0.6c0,0.2-0.2,0.2-0.3,0.2l-0.1-0.1c0-0.3,0-0.5,0.1-0.8c-0.3,0-0.6,0-0.8,0
	c-0.3,0-0.6,0-0.8,0.1c-0.1,0-0.3,0.1-0.4,0.1c-0.1,0-0.1,0-0.1-0.1c0-0.2,0.1-0.3,0.3-0.6c0.5-0.6,0.9-1.3,1.1-1.9
	c0-0.1,0-0.3,0-0.5c0,0,0,0,0.1,0c0.3,0.1,0.4,0.3,0.4,0.5l0,0.1c-0.2,0.3-0.5,0.7-0.8,1.2C174.2,324.1,174,324.4,173.8,324.6"/>
<path fill="#FFFFFF" d="M179.4,323.5L179.4,323.5c-0.1-0.8-0.4-1.2-1.1-1.3c-0.6,0.1-1,0.4-1,0.9c0.1,0.5,0.4,0.8,1,0.9
	C178.9,323.9,179.3,323.7,179.4,323.5 M179.8,323.6v0.4c-0.1,1.1-0.6,1.7-1.6,1.7c-0.6,0-1-0.2-1.2-0.5c-0.1-0.1-0.1-0.3,0-0.4l0,0
	c0.1-0.1,0.1-0.1,0.2-0.1c0,0,0,0,0.1,0c0,0.1,0,0.2,0.1,0.3c0.2,0.3,0.5,0.5,0.9,0.5c0.8,0,1.2-0.6,1.2-1.6
	c-0.3,0.2-0.7,0.4-1.1,0.4c-0.8-0.1-1.3-0.4-1.3-1.2c0.1-0.8,0.5-1.2,1.3-1.2C179.2,321.9,179.7,322.5,179.8,323.6z"/>
<path fill="#FFFFFF" d="M182.6,324.4L182.6,324.4C182.6,324.4,182.6,324.4,182.6,324.4c0-0.2,0-0.4,0-0.7c0,0,0-0.1-0.1-0.1
	c-0.2,0-0.4,0-0.6,0c-0.1,0-0.2,0-0.3,0c-0.1,0-0.1,0.1-0.1,0.2c0,0.3,0,0.5,0,0.5c0,0.1,0,0.1,0.1,0.1c0.1,0,0.3,0,0.6,0
	C182.3,324.5,182.5,324.4,182.6,324.4 M181.7,322.5L181.7,322.5C181.6,322.5,181.6,322.5,181.7,322.5c-0.2,0.2-0.3,0.4-0.6,0.6
	c0,0,0,0,0,0c-0.1,0.1-0.2,0.1-0.2,0.1c-0.2-0.1-0.2-0.2,0-0.4c0.4-0.2,0.7-0.5,0.8-1.1c0,0,0.1-0.1,0.1,0c0,0,0.1,0.1,0.1,0.1
	c0,0.1,0,0.2,0,0.3c0,0,0,0,0.1,0c1,0,1.7,0,2.2,0c0.1,0,0.1,0.1,0.1,0.2c-0.1,0.1-0.2,0.2-0.3,0.1c-0.3,0-0.8,0-1.5,0
	C182.1,322.5,181.9,322.5,181.7,322.5z M182.6,323.3v-0.4c0-0.1,0-0.2,0.1-0.2c0.1,0,0.2,0.1,0.2,0.3v0.3c0,0.1,0,0.1,0.1,0.1
	c0.1,0,0.3,0,0.7,0c0.1,0,0.2,0.1,0.2,0.1c0,0.1,0,0.2-0.1,0.2c-0.1,0-0.2,0-0.4,0c-0.1,0-0.2,0-0.5,0c0,0-0.1,0-0.1,0.1
	c0,0.2,0,0.3,0,0.5c0,0.1,0,0.2,0,0.2c0,0,0,0.1,0,0.1c0.2,0,0.5,0,0.8,0c0.3,0,0.8,0,1.4,0c0.1,0,0.1,0,0.1,0.1
	c-0.1,0.3-0.3,0.4-0.6,0.3c-0.5-0.1-1.1-0.2-1.7-0.2c-0.1,0-0.1,0-0.1,0.1c0,0.3,0,0.6,0,1.1c0,0.2-0.1,0.3-0.2,0.3
	c-0.1,0-0.2-0.1-0.2-0.3c0-0.6,0-0.9,0-1.1c0,0,0-0.1-0.1-0.1c-0.4,0-0.8,0-1.1,0.1c-0.4,0-0.7,0.1-1.1,0.1c-0.2,0-0.2-0.1-0.1-0.2
	c0.1-0.1,0.2-0.2,0.4-0.2l0.1,0c0.2,0,0.4,0,0.5,0c0.1,0,0.1,0,0.1-0.1c0,0,0,0,0-0.1c0-0.3,0-0.5,0-0.6c0-0.2,0-0.3,0.3-0.3
	C181.6,323.4,181.9,323.4,182.6,323.3C182.6,323.4,182.6,323.4,182.6,323.3z"/>
<path fill-rule="evenodd" clip-rule="evenodd" fill="#FFFFFF" d="M207.9,292.9L207.9,292.9c-1.4,0-2.4,1.1-2.4,2.4
	c0,1.3,1.1,2.4,2.4,2.4c1.3,0,2.4-1.1,2.4-2.4C210.3,294,209.2,292.9,207.9,292.9 M209.4,296.9L209.4,296.9c0.4-0.4,0.7-1,0.7-1.6
	c0-1.2-1-2.2-2.2-2.2c-1.2,0-2.2,1-2.2,2.2c0,1.2,1,2.2,2.2,2.2C208.4,297.5,208.9,297.3,209.4,296.9l-0.6,0l-1-1.4h-0.5v1.4h-0.5
	v-3.3h0.9c0.4,0,0.7,0,0.8,0.1c0.3,0.1,0.5,0.4,0.5,0.7c0,0.2-0.1,0.4-0.2,0.6c-0.1,0.2-0.3,0.3-0.6,0.4L209.4,296.9z M208.2,295
	c-0.2,0.1-0.4,0.2-0.7,0.2h-0.3V294h0.3c0.3,0,0.5,0,0.7,0.1c0.1,0.1,0.2,0.2,0.2,0.4C208.4,294.7,208.3,294.9,208.2,295z"/>
<path fill-rule="evenodd" clip-rule="evenodd" fill="#FFFFFF" d="M130.5,301.2L130.5,301.2l-0.1,13.2c0.3,4.1,3.4,5.1,6.9,4.6
	c3.3-0.5,6.6-1.1,9.9-1.4c5.5-0.4,11.2-0.9,16.8-0.9c7.8,0,15.4,0.3,23.2,0.9c3.3,0.3,6.6,0.9,9.9,1.4c3.5,0.5,6.6-0.5,6.9-4.6
	l-0.1-13.2c-0.9-5.9-8.2-3.5-11.9-3.1c-4.8,0.5-9.6,0.9-14.5,1.2c-6.6,0.4-13.9,0.4-20.5,0c-4.8-0.3-9.7-0.7-14.5-1.2
	C138.7,297.6,131.3,295.3,130.5,301.2 M129.5,300.3c1.2-6.3,8.7-3.8,12.2-3.5c4.9,0.6,9.9,1,14.9,1.4c6.8,0.4,14.3,0.4,21.1,0
	c5-0.4,9.9-0.8,14.9-1.4c3.7-0.3,11.1-2.7,12.2,3.5l0.1,14.8c-0.5,4.4-3.7,5.3-7.1,5.1c-3.4-0.5-6.8-1.3-10.1-1.6
	c-8-0.7-15.8-1-23.8-1c-5.7,0-11.6,0.6-17.2,1c-3.4,0.3-6.8,1-10.1,1.6c-3.6,0.2-6.8-0.9-7.1-5.1L129.5,300.3z"/>
<path fill-rule="evenodd" clip-rule="evenodd" fill="#FFFFFF" d="M145.4,309L145.4,309c0.2,0,0.4-0.1,0.5,0c0.1,0.1-0.2,0.9-0.2,1
	c-0.1,0.1-0.2,0.2-0.3,0.2c-0.1,0.2-0.2,0.4-0.3,0.5c-0.1,0.1-0.1,0.2-0.2,0.2c0,0.1,0,0.1-0.1,0.2c-0.2,0.2-0.7,0.9-1.3,1
	c-0.1,0-0.2,0.1-0.3,0c-0.3-0.1-0.9-0.6-1-0.9c0.2-0.1,0.6-0.5,0.6-0.7c0.1,0,0.6-0.5,0.6-0.6c0.4-0.4,0.6-0.9,1-1.3
	C144.8,308.7,145.1,308.9,145.4,309 M143.5,304.1L143.5,304.1c-0.5,0.1-0.7,0.3-1.1,0.5c0-0.2,0.5-0.6,0.6-0.8
	c-0.1-0.2-0.2-0.3-0.3-0.4c-0.3-0.5-0.5-0.8-0.3-1.5c0.1-0.1,0.2-0.2,0.3-0.3c0.2,0,0.2,0.2,0.4,0.2c0.4,0.1,0.6,0.1,0.9,0.2
	c0,0,0.5,0.1,0.5,0.2c0,0,0,0,0,0.1c0,0,0.1,0,0.1,0c0.4,0.1,0.6,0.5,0.6,0.9c-0.1,0.1,0,0.4,0,0.5c-0.1,0.2-0.7,0.3-0.9,0.4
	C144.3,304.2,143.7,304.1,143.5,304.1z M149.3,305L149.3,305c-0.3-0.3-0.7-0.7-1.2-0.7c0,0-0.1,0-0.1,0.1c0,0-0.2,0.1-0.2,0.1
	c-0.1,0.3-5.1,0.6-6,0.8c-0.4,0.2-0.9,0.2-1.3,0.2c-0.1,0-0.2,0-0.3,0c-0.8,0.3-1.3,0-2.1,0c-0.1,0.1-0.1,0.1-0.2,0.2
	c0,0-0.1,0.1-0.1,0.1c0,0.2,0,0.7,0.3,0.7c0.1,0.3,0.3,0.3,0.4,0.4c0.1,0.1,0.1,0.2,0.2,0.3c0.3,0.2,0.5,0.4,1,0.2
	c0.3,0,1.1-0.4,1.5-0.5c0.1,0,0.2-0.1,0.3-0.1c0.8-0.2,1.4-0.2,2.2-0.2c0,0,0,0.1,0,0.1c-0.3,0.6-0.8,1.1-1.2,1.6
	c-1.1,1.7-2.2,3.1-4.4,4.6c-0.1,0.2-0.5,0.4-0.5,0.7c1,0.2,2.3-0.7,3.1-1.2c0.2-0.2,0.9-0.7,1.1-0.8c0.2,0.2,0.7,0.9,0.8,1.3
	c0.1,0.3-0.3,0.6,0,0.9c0.2,0.2,1.2,0.8,1.5,0.7c0.3-0.1,1.6-1.3,1.9-1.7c0.3-0.4,0.6-0.8,0.8-1.3c0.2-0.5,0.4-0.9,0.5-1.5
	c0.1-0.3,0.4-0.6,0.5-0.7c0.1-0.4-0.3-0.7-0.5-0.8c-0.7-0.5-0.8-0.8-2-0.5c0,0,0,0,0,0c0,0,0,0,0,0c0.1-0.1,0.2-0.2,0.3-0.3
	c0.2-0.5-0.3-0.8-0.5-1.1c0,0,0,0,0,0c0.7,0,1.6-0.1,2.3-0.1c0.1,0,0.2,0,0.3,0c0.2,0,0.4,0.1,0.6,0.1c0.1,0,0.1,0,0.2,0
	c0.3,0.1,0.6,0.2,0.9,0.1c0.2-0.1,0.5-0.2,0.5-0.4c0,0-0.1-0.3-0.2-0.5C149.5,305.2,149.3,305.1,149.3,305z M157.5,307.6
	L157.5,307.6c0-0.2-0.1-0.4-0.1-0.5c0.2-0.2,0.9-0.1,1.3-0.2c0.1,0,0.2,0,0.2,0c0,0,0,0.4-0.1,0.8c-0.1,0.4-0.3,0.7-0.3,0.7
	c-0.3,0-0.7,0.1-1,0.1c0,0,0-0.2,0-0.2c0-0.1,0-0.3,0-0.4C157.6,307.9,157.5,307.8,157.5,307.6z M156.1,307L156.1,307
	c-0.1-0.2,0.1-0.7,0.3-0.8c0.1-0.1,0.1,0,0.1-0.1c0.2,0.1,0.4,0.3,0.7,0.3c0.2,0.1,1.6-0.4,2.1-0.3c0,0,0,0,0,0c0-0.1,0-0.1,0-0.2
	c0.1,0,0.2-0.1,0.2-0.1c0.3,0.1,0.4,0.2,0.5,0.3c0,0.1,0.1,0.1,0.1,0.2c0.8,0.7,0.2,0.8,0.1,1.8c-0.1,0.2-0.3,0.4-0.4,0.5
	c0,0,0,0.1,0,0.1c0,0,0.1,0.3,0,0.4c0,0,0,0.1-0.1,0.2c-0.1,0.1-0.8,0.1-1,0.2c-0.4,0-1.6,0.2-1.6,0.2c-0.1-0.1-0.1-0.1-0.2-0.1
	c0-0.1-0.1-0.1-0.1-0.1c-0.2-0.4-0.1-0.5-0.1-0.5c-0.2-0.6-0.3-1-0.5-1.7C156.2,307.2,156.2,307.1,156.1,307z M163,303.2L163,303.2
	c-0.3-0.1-0.6,0.3-0.8,0.3c-1.2-0.1-2.3,0-3.6,0.1c-0.3,0-0.6,0-1,0c-0.1,0-0.2,0-0.2,0c-0.3,0-0.7,0.1-1,0.1
	c-0.4,0.1-0.8,0-1.1,0.2c0,0,0,0,0,0.1c0,0,0,0-0.1,0c-0.1,0.1-0.2,0.2-0.2,0.3c0,0.1,0.2,0.3,0.4,0.6c0.3,0.2,0.6,0.4,0.7,0.5
	c0.2,0.1,0.4-0.1,0.5-0.1c0.2,0,0.2,0,0.3,0c0.2,0,0.5-0.1,0.6-0.2c0.2-0.1,0.4,0,0.5-0.1c0.2,0.1,0.6,0,0.8,0
	c0.8-0.1,1.1-0.1,1.8-0.2c0.1,0,0.3,0,0.4,0c0.5,0,0.3,0.1,0.8,0.1c0,0.1,0.1,0.1,0.1,0.2c0,0,0.2,0.4,0.1,0.5c0,0,0,0.1,0,0.1
	c0,0.1-0.1,0.7-0.2,0.8c-0.1,0.4-0.3,1.4-0.5,2.3c-0.1,0.4-0.3,0.8-0.3,1c-0.1,0.3-0.3,0.4-0.4,0.6c-0.2,0.1-0.5,0.2-0.8,0.2
	c-0.7,0.1-1.8,0.2-2.9,0.1c-0.2,0-0.5,0-0.8,0.1c-0.1,0-0.3,0.1-0.3,0.1c-0.1,0-0.1-0.2-0.3-0.2c0-0.1,0-0.1,0.1-0.1
	c-0.1-0.7-0.3-1.5-0.4-2.3c0-0.4-0.3-1.8-0.2-2.2c0-0.1,0-0.2,0-0.3c-0.2-0.5,0.2-0.4-0.4-0.8c-0.1-0.1-0.5-0.4-0.6-0.6
	c-0.5-0.3-0.7-0.4-1.2-0.3c0,0.3,0,0.6,0.1,1c0.2,1.2,0.4,2.4,0.5,3.6c0.1,0.6,0.7,3.6,1.5,3.7c0.3-0.1,0.6-0.3,0.8-0.5
	c0.1,0-0.2,0.3,0.6,0.2c0.7-0.1,1.6-0.2,1.8-0.2c0.5,0,0.9,0,1.4,0.1c0,0.1,0.1,0.2,0.2,0.3c0.1,0.3,0.1,0.3,0.3,0.5
	c0,0,0.1,0,0.2,0c0.3,0,0.8-0.1,1.2-0.2c0.3-0.1,0.7-0.2,0.8-0.3c1.3-0.9,1.8-4.8,2.4-6.9c0.1-0.2-0.1-0.9-0.6-1.4
	C163.7,303.6,163.2,303.4,163,303.2z M177.8,309.8L177.8,309.8c-0.6-0.4-1.6-0.7-2.8-2.3c0.2,0,0.4-0.1,0.6-0.1
	c0.6-0.1,1.1,0.1,1.6,0.1c0.1-0.1,0.6,0,0.6-0.2c0,0,0-0.3-0.1-0.5c0-0.1-0.1-0.1-0.1-0.2c-0.1-0.2-0.4-0.2-0.5-0.4
	c0-0.1-0.1-0.1-0.1-0.2c0,0,0,0-0.1,0c-0.1-0.1-0.7,0-1.3,0.1c-0.8,0.1-1.8,0.2-1.9,0.2c0,0-0.1,0.1-0.1,0.1c-0.1,0-0.2,0-0.2,0
	c-0.1,0-0.2,0.1-0.3,0.1c0,0,0,0,0,0c0.1-0.2,0.2-0.3,0.4-0.4c0.3-0.1,1.3-0.2,1.5-0.4c0.1,0,0.3,0,0.4,0c0.1-0.1-0.1-0.3,0-0.5
	c0-0.2-0.6-0.2-0.6-0.4c-0.1,0-0.2-0.1-0.2-0.1c0,0-0.5,0.1-0.6,0.1c-0.1,0,0-0.2,0-0.2c0-0.1,0-0.2,0.1-0.2
	c0.3-0.1,0.9-0.1,1.1-0.1c0.1,0,0.1,0,0.2,0c0.1,0,0.2,0,0.2,0c0.1-0.1,0.2-0.2,0.3-0.3c0-0.1,0.1-0.1,0.1-0.1
	c0.2-0.5-0.5-0.9-0.8-1.1c-0.1,0-0.3,0-0.3,0c-0.4,0-0.6,0.1-1,0.1c0-0.1,0-0.3,0-0.4c-0.1-0.2-0.3-0.2-0.4-0.3
	c-0.2-0.1-0.3-0.3-0.5-0.4c-0.1-0.2-0.2-0.4-0.4-0.6c-0.2-0.1-0.5-0.1-0.6,0c-0.2,0.1-0.2,0.4-0.3,0.6c0,0.1,0,0.1,0,0.1
	c0,0.1,0,0.1,0,0.2c0.1,0.1,0.1,0.2,0.2,0.2c0.1,0.2-0.1,0.9-0.1,1c-0.1,0.2-0.5,0.1-0.8,0.1c-0.4,0.1-0.9,0.1-1.1,0.4
	c0,0.1,0.1,0.3,0.2,0.3c0,0,0,0,0.1,0c0,0,0,0,0,0c0,0,0,0.1,0,0.1c0.1,0,0.2,0.1,0.3,0.1c0.2,0.1,0.3,0.4,0.6,0.5
	c0.1,0,0.3,0,0.3,0c0,0.1-0.1,0.3-0.1,0.3c-0.2,0.4-0.8,0.1-1.2,0.1c-0.2,0.3-0.7,0.3-0.2,0.7c0.1,0.1,0.2,0.1,0.4,0.2
	c0.1,0.1,0.5,0.2,0.6,0.3c0,0.2,0,0.3-0.1,0.4c-0.3,0.2-1.1,0.1-1.4,0.3c-0.5,0.1-1.6-0.2-1.8,0.3c0,0,0,0.2,0.2,0.4
	c0.3,0.3,0.7,0.7,0.8,0.7c0.2,0.1,0.4,0.1,0.9,0c0,0,0,0.2,0,0.2c-0.5,0.5-0.5,0.8-1.3,1.8c-0.8,1-1.3,1.4-1.9,1.8
	c0,0.1,0,0.1,0.1,0.2c0,0,0,0,0.1,0c0,0,0.1-0.1,0.1-0.1c0.1,0,0.1,0,0.2,0c0.4-0.1,0.9-0.2,1.2-0.4c1.3-0.6,2-1.9,3.2-3
	c0.1-0.1,0.1-0.2,0.2-0.3c0.1-0.2,0.3-0.3,0.4-0.5c0.1-0.1,0.1-0.1,0.2-0.2c0.1,0,0.1,0,0.2-0.1c0.5-0.3,1.2-0.4,1.8-0.6
	c0.1,0,0.1,0,0.1,0c0.1,0,0,0,0.1,0c0,0,0,0.1,0,0.1c0,0-0.1,0-0.1,0c0,0,0,0,0,0c0,0.1,0.1,0.1,0.1,0.1c0,0.1,0,0,0,0.1
	c0,0.1,0.2,0.2,0.2,0.3c0,0,0,0,0,0c-0.5,0-1.4,0.2-1.7,0.5c-0.1,0.2-0.2,0.4-0.4,0.6c0,0,0,0.1,0,0.1c0.1,0.1,1.3-0.1,1.3-0.2
	c0.1,0,0.1,0,0.2,0c0.2,0.4,0.2,1.1,0.1,1.8c-0.1,0.7-0.1,1.4,0,1.9c-0.1,0-0.1,0.1-0.1,0.2c0,0-0.1,0-0.1,0
	c-0.1-0.1-0.4-0.1-0.5-0.2c0,0,0.1,0,0.1,0c0.1-0.1,0-0.1,0-0.2c0.1-0.3-0.1-0.6-0.4-0.6c-0.1,0-0.2,0-0.4,0c-0.1,0-0.1-0.1-0.2,0
	c0,0,0,0,0,0.1c0,0,0,0,0,0c-0.1,0-0.1,0-0.3,0c0,0,0,0,0,0c0-0.1,0-0.3,0-0.4c0.2-0.1,0.5-0.1,0.7-0.2c0.2-0.1,0.2-0.3,0.4-0.5
	c0.1-0.1,0.2-0.3,0-0.4c0-0.1,0-0.2-0.1-0.3c0,0,0,0,0,0c0,0,0,0,0,0c0,0,0,0,0-0.1c-0.2-0.2-0.5-0.1-0.7-0.2c0,0,0,0-0.1,0
	c0-0.1,0.1-0.2,0.1-0.2c0-0.1-0.1-0.2-0.1-0.4c0-0.1,0-0.2,0-0.3c-0.1-0.1-0.1-0.1-0.2-0.2c0-0.1,0-0.1,0.1-0.2c0,0,0,0-0.1,0
	c-0.1,0,0,0-0.1,0c0,0-0.1,0-0.1,0c-0.1,0.1-0.2,0.2-0.3,0.2c-0.1,0.2-0.2,0.4-0.3,0.5c0,0,0,0,0,0c0,0.1-0.1,0.1-0.1,0.2
	c-0.1,0.3-0.1,0.8-0.2,1.1c0,0.2-0.1,0.4-0.1,0.5c0,0.2-0.1,0.7,0,0.8c-0.3,0.7,0.2,1.8,0.8,1.9c0.2,0,0.3-0.1,0.5-0.2
	c0.3-0.1,0.5-0.1,0.7-0.3c0.1,0,0.1,0,0.2,0c0.1,0.2,0.4,0.2,0.6,0.3c0.2,0.1,0.4,0.3,0.5,0.5c0,0.1,0.1,0.2,0.1,0.3
	c0.1,0.1,0.2,0,0.3,0c0.4,0,0.6-0.5,0.9-0.6c0.2-0.1,0.4-0.3,0.5-0.5c0.5-0.7,0.1-2.1,0.1-3.1c0.2,0.1,0.7,0.5,0.9,0.7
	c0.2,0.1,0.4,0.3,0.6,0.3c0.2,0,0.3-0.1,0.5-0.1c0.3,0,0.5,0.1,0.8,0.1c0.2,0,0.5,0.2,0.8,0.1c0,0,0,0,0,0c0,0,0,0,0,0c0,0,0,0,0,0
	c0.1,0,0.1,0,0.2,0c0.1-0.1,0.3-0.3,0.3-0.4c0.2,0,0.2-0.1,0.3-0.1C180,310.7,178.3,310,177.8,309.8z M192.6,305.1
	c-0.2-0.1-1.7-0.4-2-0.3c-0.2,0.1-0.9-0.1-1.2-0.1c-0.2,0-0.4,0-0.6,0c0.1-0.3,0.7-0.3,1.1-0.4c0.1,0,0.2-0.1,0.3-0.1
	c0.2,0.1,0.2,0.2,0.5,0.3c0.3,0.1,0.6-0.1,0.6-0.2c0-0.1,0-0.1,0-0.1c0.1-0.1,0.2-0.1,0.2-0.3c0-0.2,0-0.4-0.1-0.6
	c-0.1-0.3-0.9-0.4-1.1-0.7c-0.3-0.2-0.5,0.1-0.8,0.2c0,0,0,0,0,0.1c0,0,0,0-0.1,0c0.1,0.1,0.2,0.2,0.3,0.3c0,0.2-0.7,0.8-1,0.8
	c0,0,0,0,0,0c-0.1-0.3,0.1-0.8,0.2-0.9c0.1-0.1,0.1,0,0.2-0.1c0-0.2-0.4-0.8-0.5-0.9c-0.1,0-0.1,0-0.2-0.1c-0.1,0-0.1-0.1-0.1-0.1
	c0,0-0.1,0-0.1,0c-0.2-0.1-0.4-0.4-0.6-0.5c-0.3-0.1-0.6,0-0.7,0.1c-0.2,0.2-0.5,0.3-0.6,0.5c-0.1,0.2,0.1,0.3,0.2,0.4
	c0,0.2-0.1,0.4-0.1,0.6c0,0.2,0.1,0.4,0,0.6c0,0-0.7,0.2-0.8,0.2c-0.1,0-0.3-0.1-0.4-0.1c-0.1,0-0.3,0-0.3-0.1
	c-0.2-0.2,0-0.6-0.1-0.6c-0.1,0-0.1,0-0.1,0c-0.1,0-0.1,0-0.2,0c-0.2,0.1-0.2,0.2-0.2,0.3c-0.1,0.2-0.5,0.6-0.3,1
	c0.1,0.4,0.5,0.6,0.9,0.7c0.3,0,0.6,0.2,0.8,0.3c-0.3,0.1-0.9,0.1-1.3,0.1c-0.3,0-0.6,0.1-0.8,0.1c-0.3-0.2-0.1-0.6,0.1-0.8
	c0,0,0-0.1,0-0.1c0,0,0-0.1-0.1-0.1c-0.3,0-0.7,0.2-0.8,0.3c-0.2,0.3-0.2,0.5-0.5,0.8c0,0-0.6,0.8-0.7,1c-0.2,0.6,0.2,1.2,0.6,1.6
	c0.1,0.2,0.2,0.3,0.3,0.4c0.1,0.1,0.3,0.1,0.5,0.1c0.3,0.1,0.3-0.1,0.5-0.3c0.7-0.5-0.1-2.1,0.5-2c0-0.1,0-0.1,0.1-0.2
	c0.9-0.3,1.8-0.4,2.8-0.5c0,0.1,0.3,0.5,0.5,0.6c0.4,0,0.3-0.2,0.6-0.3c0.1-0.1,0.3-0.2,0.4-0.2c0.1,0,0.2,0,0.3,0
	c0.1,0,0.2-0.1,0.2-0.1c0,0,0-0.1-0.1-0.1c0.4-0.3,1.5-0.1,2.1-0.2c0,0,0,0,0,0c0.1,0.1,0.3,0.1,0.5,0.1c0.1,0,0.1,0.1,0.2,0.1
	c-0.1,0.2-0.6,0.5-0.8,0.7c-0.1,0-0.1,0.1-0.1,0.2c-0.1,0-0.3,0.2-0.4,0.1c-0.3-0.1-0.5-0.3-0.8-0.3c-0.1-0.1-0.5,0-0.8,0.1
	c-0.5,0.1-1.1,0.2-1.1,0.3c-0.1,0-0.1,0-0.2,0c-0.1,0.1-0.1,0.1-0.1,0.2c0,0,0,0-0.1,0c-0.2,0.1-0.2,0.3-0.2,0.6
	c0.1,0.3,0.4,0,0.8,0c0.2,0,0.4,0,0.6,0c0,0,0,0,0.1,0c0,0,0,0,0,0c0,0.2-0.1,0.4-0.2,0.7c-0.3,0.2,0.3,0.5-0.9,0.4
	c-0.2,0-0.3,0.1-0.5,0.1c0,0,0,0,0,0c0-0.1,0-0.2,0-0.4c0-0.1-0.1-0.1-0.1-0.2c-0.1-0.5-0.1-0.2-0.2-0.7c0-0.1,0-0.2,0-0.3
	c-0.6-0.6-0.3-0.2-0.9-0.4c-0.2,0.2-0.2,0.5,0,0.9c0,0.7,0.4,2.1,1,2.3c0.3-0.3,0.6,0,0.4-0.1c-0.1,0.6,0,0.7,0,0.8
	c-0.1,0.1-1.2,0.2-1.3,0.3c-0.1,0.1-0.1,0.1-0.2,0.3c-0.1,0.3,0.5,0.7,0.7,0.9c0.1,0,0.3,0,0.5,0c0,0.2,0,0.3-0.1,0.5
	c-0.2,0.1-0.4,0.1-0.6,0.1c-0.6,0-1.7,0.1-2.3,0.1c-0.5,0,0,0.9,0.3,1.1c0.2,0.1,0.4,0.3,0.6,0.4c0.9-0.1,1.5-0.1,2.3-0.3
	c0.3-0.1,0.9,0,1.1-0.2c0.1,0,0.3,0,0.5,0c0.7,0.1,1.4,0,2,0.3c0.4,0.1,0.6,0.1,1-0.1c0.4,0,0.6-0.1,0.8-0.2c0-0.1-0.1-0.4-0.2-0.4
	c0.1-0.1,0-0.2,0-0.3c-0.2-0.5-0.5-0.6-1-0.8c-0.1,0-0.1-0.1-0.2-0.1c-0.1,0-0.3,0.2-0.5,0.3c-0.3,0.1-0.6,0-0.9,0
	c-0.2,0-0.6,0-0.8,0c0-0.1,0-0.3,0-0.5c0-0.1,0-0.3,0-0.4c0.1,0,0.5-0.1,0.6-0.1c0.1,0.1,0.9-0.2,0.9-0.4c0.1-0.1,0.1-0.2,0.1-0.2
	c-0.1-0.3-0.3-0.6-0.6-0.8c-0.1-0.1-0.3,0-0.5,0c-0.2,0-0.4,0-0.6,0c-0.2,0.1-0.1-0.1-0.1-0.2c0-0.1,0-0.2,0.1-0.3
	c0.6-0.2,1,0.2,1.3-0.6c0.1-0.2-0.2-0.3-0.1-0.5c0.1-0.1,0.2-0.1,0.3-0.2c0.4-0.8,1-0.6,0.6-1.5c0,0,0,0,0,0c0.1-0.1,0.1,0,0.2,0
	c0.7-0.2,1.3-0.3,1.8,0.1c0.1,0.1,0.3,0.1,0.4,0.1c0.2,0,0.5-0.2,0.7-0.3c0.1-0.1,0.1-0.1,0.1-0.2c0.3-0.4-0.1-0.7-0.4-1
	C193,305.5,192.9,305.3,192.6,305.1z"/>
<path fill-rule="evenodd" clip-rule="evenodd" fill="#FFFFFF" d="M197.2,309.6L197.2,309.6c0.3,0,0.8,0,1.1,0c0.1,0,0.1,0,0.2,0
	c0.1,0,0.2,0,0.3,0c0,0,0.1,0,0.1,0c0.2,0,0.4,0,0.6,0c0,0,0,0,0.1,0c0.1,0,0.2,0,0.2,0c0.1,0,0.2,0,0.2,0c0.2,0,0.3,0,0.4,0.1
	c0,0,0.1,0,0.1,0c0,0,0,0.1,0,0.1c0,0.1,0,0.1,0,0.2c0,0,0,0,0,0c0,0,0,0,0,0.1c0,0,0,0,0,0c0,0,0,0,0-0.1c0,0,0.1,0,0.1-0.1
	c-0.1-0.1-0.2-0.1-0.4-0.1c-0.2,0-0.5,0-0.7,0c-0.2-0.1-0.5,0-0.7-0.1c0,0-0.3,0-0.3,0c0,0,0,0,0,0c0,0-0.1,0-0.2,0
	c-0.1,0-0.1-0.1-0.2-0.1c0,0,0,0.1-0.1,0.1c-0.1,0-0.2,0-0.3,0c0,0-0.1,0-0.1,0c-0.2,0-0.4-0.1-0.6,0c-0.1,0-0.3,0-0.4,0
	c-0.1,0-0.1,0-0.2,0c-0.1,0-0.2,0-0.2,0.1c0,0-0.1,0-0.1,0c-0.2,0.1-0.2,0.5-0.2,0.8c0,0.1,0,0.2,0,0.3c0,0.1,0,0.2,0,0.3
	c0,0.1,0,0.3,0,0.3c0,0,0,0,0,0c0,0,0,0.1,0,0.1c0,0,0,0.2,0,0.2c0,0.1,0,0.3,0,0.4c0,0.1,0,0.1,0,0.2c0,0,0,0,0,0c0,0,0,0,0,0l0,0
	c0,0,0,0.1,0,0.1c0,0,0,0.1,0,0.1c0,0,0,0.2,0,0.2c0,0.2,0,0.4,0,0.7c0,0.1,0,0.2,0,0.3c0,0,0,0,0,0c0,0,0,0.1,0,0.2
	c0.1,0,0.2,0.1,0.2,0.1c0,0,0.2,0,0.3,0c0.2,0,0.4,0,0.5,0c0.1,0,0.2,0,0.3,0c0.2-0.1,0.6,0,0.9,0c0.2,0,0.4,0,0.5,0
	c0.1,0,0.2,0,0.2,0c0.1,0,0.3,0,0.4,0c0.1,0,0.3,0,0.4,0c0,0,0.1,0,0.1,0c0.1,0,0.3,0,0.5,0c0.1,0,0,0,0.1,0c0,0,0.1-0.1,0.1-0.2
	c0-0.1,0-0.2,0-0.2c0,0,0,0,0,0c0-0.1,0-0.2,0-0.3c0-0.1,0.1-0.2,0.1-0.3c0,0,0-0.1,0-0.1c0-0.1,0-0.3,0-0.3c0-0.1,0-0.1,0-0.2
	c0-0.1,0-0.2,0-0.2c0,0,0-0.1,0-0.1c0,0,0-0.1,0-0.2c0-0.1,0-0.1,0-0.1c0-0.2,0-0.5,0-0.7c0,0,0-0.1,0-0.1c0,0,0,0,0,0
	c0,0,0-0.1,0-0.1c0,0,0,0,0,0c0,0,0-0.1,0-0.2c0,0,0.1-0.1,0.1-0.1c0-0.1,0-0.2,0.1-0.2c0,0.1,0,0.1,0,0.1c0,0,0,0.2,0,0.2
	c0,0,0,0,0,0c0,0.1,0,0.1,0,0.2c0,0.1,0,0.2,0,0.4c0,0.1,0,0.1,0,0.2c0,0,0,0.1,0,0.2c0,0,0,0.1,0,0.2c0,0.2,0,0.4,0,0.6
	c0,0.2,0,0.5,0,0.7c0,0.1,0,0.2,0,0.3c0,0,0,0,0,0c0,0.2,0,0.5,0,0.7c-0.1,0.1-0.1,0.1-0.3,0.1c0,0-0.3,0-0.4,0c-0.3,0-0.5,0-0.8,0
	c-0.2,0-0.2,0-0.3-0.1c-0.1,0-0.1,0-0.2,0c0,0,0,0,0,0c0,0,0,0-0.1,0c-0.1,0-0.2,0-0.2,0c-0.1,0-0.4,0-0.4,0c0,0,0,0,0,0
	c-0.1,0-0.3,0-0.4,0c0,0,0,0,0,0c0,0-0.1,0-0.1,0c0,0,0,0,0,0c0,0,0,0,0,0c-0.1,0-0.2,0-0.3,0c-0.3,0-0.6,0-0.9,0
	c-0.1,0-0.3,0-0.3-0.1c0-0.1,0-0.1,0-0.2c-0.1,0,0-0.2,0-0.3c0-0.3,0-0.6,0-0.9c0-0.3,0-0.5,0-0.8c0-0.1,0-0.3,0-0.4
	c0-0.1,0-0.1,0-0.2c0,0,0,0,0,0c0,0,0,0,0-0.1c0-0.2,0-0.4,0-0.6c0-0.3,0-0.6,0-1c0,0,0.1-0.2,0.1-0.2c0,0,0,0,0,0c0,0,0-0.1,0-0.1
	c0,0,0,0,0-0.1c0.1,0,0.1,0,0.2,0c0.2,0,0.8,0,0.9,0C196.9,309.6,197.1,309.7,197.2,309.6 M199.3,310.1L199.3,310.1
	c0.2,0,0.5,0,0.7,0c0,0,0,0,0,0.1c0,0,0,0-0.1,0c0,0-0.1,0-0.2,0c-0.2,0-0.4,0-0.5,0c0,0,0,0,0,0.1c0,0,0,0.2,0,0.2c0,0,0,0,0,0
	c0,0,0.2,0,0.2,0c0.2,0,0.4,0,0.6,0c0,0,0,0,0,0.1c-0.1,0-0.2,0-0.3,0c-0.2,0-0.4,0-0.6,0c0,0,0,0.1,0,0.2c0,0,0,0,0,0
	c0.1,0,0.2,0,0.3,0c0.1,0,0.2,0,0.2,0c0.1,0,0.2,0,0.2,0.1c0,0,0,0,0.1,0.1c0,0,0,0.1,0,0.1c0,0.1,0,0.1,0,0.2c0,0.2,0,0.4,0,0.6
	c0,0.1-0.1,0.1-0.1,0.1c-0.2,0-0.4,0-0.6,0c-0.4,0-0.8,0-1.2,0c0,0,0-0.1,0-0.1c0.1-0.1,0.3,0,0.5,0c0.4,0,0.7,0,1.1,0
	c0,0,0.2,0,0.2,0c0,0,0,0,0-0.1c0,0,0-0.2,0-0.2c0-0.2,0-0.3,0-0.5c0,0-0.1-0.1-0.1-0.1c-0.1,0-0.3,0-0.4,0c-0.1,0-0.3,0-0.4,0
	c-0.1,0-0.2,0-0.3,0c-0.2,0-0.5,0.1-0.6,0.1c0,0,0-0.1,0-0.1c0-0.1,0.1,0,0.2-0.1c0.2-0.1,0.5,0,0.7-0.1c0,0,0-0.1,0-0.2
	c0,0,0,0,0,0c0,0,0,0,0,0c-0.1,0-0.4,0-0.5,0c-0.1,0-0.2,0-0.2,0c-0.1,0-0.1-0.1-0.1-0.2c-0.1-0.1,0-0.3,0.1-0.3
	c0.1-0.1,0.5,0,0.7,0c0,0,0,0,0,0c0,0,0,0,0,0c0,0,0,0.1,0,0.1c0,0,0,0,0,0c-0.1,0.1-0.5-0.1-0.6,0.1c0,0,0,0.2,0,0.2
	c0,0,0.1,0,0.1,0.1c0.2,0,0.4,0,0.7,0c0-0.1,0-0.1,0-0.2c0,0,0-0.1,0-0.1c0,0,0.1-0.1,0.1-0.1C199.2,310.1,199.3,310.1,199.3,310.1z
	 M200.4,310.3L200.4,310.3C200.4,310.3,200.4,310.3,200.4,310.3c0.1,0.1,0,0.2,0,0.2c0,0,0,0,0,0c0,0,0,0,0,0
	C200.4,310.5,200.4,310.4,200.4,310.3z M196.3,310.1L196.3,310.1c0.5,0,1,0,1.5,0c0,0.1,0.1,0.1,0.1,0.2c0,0.1,0,0.3,0,0.4
	c0,0.3,0,0.6,0,0.9c0,0-0.1,0.1-0.1,0.1c0,0,0,0,0,0l0,0c-0.3,0-0.5,0-0.8,0c-0.1,0-0.3,0-0.3,0c-0.3-0.1-0.1-0.7-0.2-1
	c0.1,0,0.1-0.1,0.2-0.1c0.1,0,0.5,0,0.6,0c0,0,0.1,0,0.1,0c0.1,0,0.1,0.1,0.1,0.1c0,0.2,0,0.5,0,0.6c0,0,0,0,0,0c0,0,0,0-0.1,0
	c-0.1-0.1,0-0.4,0-0.6c-0.1,0-0.1-0.1-0.2-0.1c0,0-0.1,0-0.2,0c-0.1,0-0.2,0-0.3,0c0,0-0.1,0-0.1,0.1c0,0.3,0,0.5,0,0.8
	c0,0,0,0,0,0.1c0,0.1,0.2,0,0.3,0c0.2,0,0.5,0,0.7,0c0,0,0.1,0,0.2,0c0-0.1,0-0.3,0-0.4c0-0.3,0-0.5,0-0.8c0,0,0-0.1-0.1-0.1
	c-0.1,0-0.2,0-0.2,0c0,0-0.3,0-0.4,0c-0.3,0-0.6,0-1,0c-0.1,0.1,0,0.5,0,0.7c0,0,0,0.2,0,0.3c0,0.2,0,0.5,0,0.7c0,0,0,0,0,0.1
	c0.5,0,1.2,0,1.7,0c0,0,0,0,0,0.1c0,0,0,0,0,0c0,0,0,0,0,0c0,0.1-0.3,0-0.4,0c-0.4,0-0.9,0-1.3,0c-0.1-0.1-0.2,0-0.2-0.1
	c0-0.1,0-0.4,0-0.5c0-0.4,0-0.9,0-1.2c0,0,0.1-0.1,0.1-0.1C196.2,310.1,196.2,310.1,196.3,310.1z M197.8,312.2L197.8,312.2
	C197.8,312.2,197.9,312.2,197.8,312.2C197.9,312.2,197.9,312.2,197.8,312.2c0.2,0.1,0.1,0.2,0,0.3c-0.2,0.2-0.5,0.1-0.8,0.1
	c0,0,0,0,0,0.1c0,0,0.1,0,0.1,0c0,0,0.2,0,0.2,0c0.1,0,0.4,0,0.5,0c0,0,0,0.1,0.1,0.1c0,0,0,0,0,0c0,0.1-0.2,0-0.2,0
	c-0.2,0-0.4,0-0.6,0c0,0,0,0,0,0.1c0.1,0,0.2,0,0.3,0c0.2,0,0.4,0,0.6,0c0,0,0,0,0,0c0,0,0,0.1-0.1,0.1c-0.2,0-0.4,0-0.6,0
	c0,0,0,0,0,0c0,0,0,0,0,0c0,0,0,0,0,0c0,0,0,0,0,0.1c0,0,0,0,0.1,0c0.1,0,0.4,0,0.4,0c0,0,0.1,0,0.1,0.1c0,0,0,0,0,0.1
	c0,0,0,0,0.1,0c0,0,0,0.1,0,0.1c0,0,0,0.1,0,0.1c0,0.1-0.1,0.3,0,0.4c0,0,0,0.1,0.1,0.1c0,0,0,0-0.1,0c0,0,0,0-0.1,0
	c-0.1-0.1-0.1-0.4-0.1-0.5l0,0c0,0,0,0,0-0.1c0,0,0,0,0-0.1c0-0.1,0-0.1,0-0.1c0,0,0,0,0,0c-0.1-0.1-0.2,0-0.3,0
	c-0.1,0-0.2-0.1-0.2-0.1c0,0,0-0.1,0-0.1c-0.1,0-0.2,0-0.3,0c0,0,0,0,0,0c-0.1,0-0.1,0.1-0.1,0.2c0,0,0,0-0.1,0c0,0,0,0,0,0
	c-0.1,0-0.1,0-0.2,0c0,0-0.2,0-0.2,0c0,0,0,0-0.1,0c0,0,0,0.1,0,0.1c0,0,0.1,0.1,0.1,0.1c0,0.1,0.1,0.4,0,0.5c0,0,0,0.1-0.1,0.1
	c0,0,0,0.1,0,0.1c0,0-0.1,0-0.1,0c0,0,0,0,0,0c0-0.1,0.1-0.3,0.1-0.5c0-0.1-0.1-0.2-0.1-0.3c0,0,0,0,0-0.1c0.1-0.1,0.1-0.1,0.3-0.1
	c0,0,0.2,0,0.2,0c0,0,0,0,0.1-0.1c-0.1,0-0.5,0-0.6,0c0,0,0,0,0-0.1c0,0,0,0,0,0c0.3,0,0.6,0,0.8,0c0,0,0,0,0-0.1c0,0,0,0,0,0
	c-0.1,0-0.2,0-0.2,0c-0.2,0-0.3,0-0.5,0c0,0-0.1,0-0.2,0c0,0,0,0,0-0.1c0,0,0,0,0,0c0.1,0,0.1,0,0.2,0c0,0,0.1,0,0.1,0
	c0.2,0,0.4,0,0.6,0c0,0,0,0,0-0.1c0,0,0,0-0.1,0c0,0-0.1,0-0.2,0c-0.1,0-0.1,0-0.2,0c-0.2,0-0.4,0-0.4-0.2c0,0,0-0.1,0-0.1
	c0,0,0,0,0.1,0c0,0,0,0,0,0c0,0.1,0,0.1,0.1,0.1c0.1,0.1,0.6,0.1,0.7,0c0-0.1,0-0.1,0-0.2c0,0,0,0,0.1,0c0,0,0,0,0,0c0,0,0,0,0,0
	c0.1,0.1,0,0.2,0.1,0.2c0,0,0.1,0,0.2,0c0,0,0.1,0,0.2,0c0.1,0,0.2,0,0.3,0c0,0,0,0,0-0.1C197.8,312.3,197.8,312.3,197.8,312.2
	C197.8,312.2,197.8,312.2,197.8,312.2z M197,313.3L197,313.3c0.2,0,0.3,0,0.4,0c0,0.1,0.1,0.1,0.1,0.2c0,0.1,0,0.4,0,0.5
	c-0.1,0-0.1,0.1-0.1,0.1c-0.1,0-0.2,0-0.2,0c-0.2,0-0.3,0-0.5,0c0,0-0.1,0-0.1,0c-0.1,0-0.1-0.1-0.1-0.2c0,0,0-0.1,0-0.2
	c0-0.1,0-0.2,0-0.3c0,0,0.1-0.1,0.1-0.1C196.6,313.3,196.9,313.4,197,313.3z M197.2,313.5L197.2,313.5c0,0-0.1,0-0.2,0
	c-0.1,0-0.3,0-0.4,0c0,0,0,0,0,0c0,0,0,0.1,0,0.1c0.1,0.1,0.3,0,0.4,0c0.1-0.1,0.4,0.1,0.5-0.1c0,0,0,0,0,0
	C197.3,313.5,197.3,313.5,197.2,313.5z M197.1,313.8L197.1,313.8c0,0-0.1,0-0.2,0c-0.1,0-0.3,0-0.4,0c0,0,0,0,0,0.1c0,0,0,0.1,0,0.1
	c0,0,0.1,0,0.1,0c0.2,0,0.5,0,0.7,0c0-0.1,0.1-0.1,0.1-0.2c0,0,0,0,0,0c0,0,0,0,0,0C197.3,313.8,197.2,313.8,197.1,313.8z
	 M198.3,312.2L198.3,312.2c0,0-0.1,0-0.2,0c0,0,0,0,0,0c0,0.1,0,0.1,0,0.1c0.2,0,0.5,0,0.6,0c0,0.2-0.5,0-0.6,0.1c0,0,0,0,0,0
	c0,0,0,0.1,0,0.1c0.1,0,0.2,0,0.4,0c0.1,0,0.1,0,0.2,0c0,0,0.1,0,0.1,0c0,0,0.1,0,0.1-0.1c0,0,0-0.1,0-0.1c0-0.1,0-0.1,0-0.1
	c0-0.1-0.2-0.1-0.4-0.1C198.4,312.2,198.3,312.2,198.3,312.2z M199.5,312.2L199.5,312.2c0,0-0.1,0-0.2,0.1c-0.1,0-0.1,0.2-0.1,0.2
	c0,0,0.1,0.1,0.1,0.1c0,0,0.1,0,0.1,0c0.2,0,0.4,0,0.5,0c0,0,0,0,0.1-0.1c0,0,0,0,0-0.1c-0.1-0.1-0.5,0-0.6,0c0,0,0,0-0.1-0.1
	c0-0.1,0-0.1,0.1-0.1c0.1,0,0.2,0,0.2,0c0.1,0,0.3,0,0.4,0c0,0,0,0,0,0c0,0,0,0,0-0.1C199.8,312.2,199.7,312.2,199.5,312.2z
	 M199.1,312.2L199.1,312.2c0,0.1,0,0.3,0,0.5c0.1,0.1,0.6,0,0.8,0c0,0,0,0,0.1,0c0,0,0.1,0.1,0.1,0.2c0,0,0,0,0,0c0,0,0,0,0,0.1
	c0,0.1,0,0.1-0.1,0.2c0,0.1,0,0.2,0,0.2c0,0.1,0,0.2,0,0.3c0,0.1,0,0.1,0,0.2c0,0.1,0.1,0.2,0.1,0.3c0,0,0,0-0.1,0
	c-0.1-0.2-0.1-0.4-0.1-0.6c0-0.1,0-0.2,0-0.2c0-0.1,0.1-0.3,0.1-0.4c0,0,0-0.1-0.1-0.1c0,0-0.1,0-0.1,0c0,0.1,0,0.2,0,0.3
	c0,0,0,0.1,0,0.1c0,0.1-0.1,0.2-0.2,0.2c-0.1,0.1-0.2,0-0.3,0c0,0,0,0.1,0,0.1c0.1,0,0.3,0,0.4,0c0,0,0.1,0,0.1,0c0,0,0,0,0,0.1
	c-0.1,0.1-0.4,0-0.6,0c0,0.1,0,0.2,0,0.3c0,0,0,0,0.1,0c0,0,0.1,0,0.1,0c0.1,0,0.2,0,0.4,0c0,0,0,0,0,0.1c0,0,0,0-0.1,0
	c0,0-0.3,0-0.4,0c-0.3,0-0.6,0-0.9,0c0,0,0,0,0-0.1c0.1-0.1,0.3,0,0.5,0c0,0,0.1,0,0.1,0c0-0.1,0-0.2,0-0.3c-0.1,0-0.2,0-0.3,0
	c0,0-0.2,0-0.3,0c0,0,0,0,0-0.1c0,0,0,0,0-0.1c0,0,0,0,0.1,0c0.2,0,0.4,0,0.5,0c0,0,0-0.1,0-0.1c0,0,0,0,0,0c0,0,0,0,0,0
	c0,0,0,0-0.1,0c0,0-0.1,0-0.1,0c0,0,0,0,0,0c0,0-0.1,0-0.1,0c0,0,0,0-0.1,0c0-0.1-0.1-0.1-0.1-0.2c0,0,0-0.1,0-0.1
	c0-0.1,0-0.2,0-0.2c0-0.1-0.1,0-0.2,0c0,0-0.1,0-0.1,0.1c0,0.1,0,0.2,0.1,0.3c0.1,0.2,0,0.5,0,0.7c0,0.1,0,0.2-0.2,0.2
	c0-0.1,0-0.3,0.1-0.4c0,0,0-0.1,0-0.1c0-0.1,0-0.3,0-0.4c0,0,0-0.1,0-0.1c0-0.1-0.1-0.2,0-0.3c0-0.1,0.1-0.1,0.1-0.2
	c0.2,0,0.5,0,0.7,0c0-0.1,0-0.2,0-0.3C199,312.3,199,312.2,199.1,312.2C199,312.2,199.1,312.2,199.1,312.2z M198.6,312.8
	L198.6,312.8C198.6,312.8,198.6,312.9,198.6,312.8c0,0.1,0.2,0.1,0.3,0.1c0.2,0,0.4,0,0.6,0c0,0,0,0,0-0.1c0,0,0,0,0,0
	C199.2,312.8,198.9,312.8,198.6,312.8z M199.4,313c0,0-0.2,0-0.2,0c-0.2,0-0.4,0-0.6,0c0,0,0,0,0,0c0,0,0,0,0,0c0,0,0,0.1,0,0.1
	c0,0,0,0,0.1,0.1c0.3,0,0.5,0,0.8,0c0.1-0.1,0.1,0,0.1-0.2C199.5,313,199.4,313,199.4,313z"/>
<path fill="#F0DACB" d="M343.7,264.7c-7.1-0.3-10.3,1.6-13.8,6.7c-4.6,6.9,3.3,16.8,10.9,16.7c2.4,0,4.6-0.6,5.8-1.8
	c0.4-0.8,0.4-1,1-1.7c0.5-0.6,0.2-0.3,0.6-0.7c0.8-0.6,0.2-0.3,1.3-0.6l0.6-0.5c1.1-1,1.6-2,3.8-2.7c1-0.3,2.5-0.4,3.1-0.7
	C362.5,276.9,357,265.3,343.7,264.7z"/>
<path fill="none" stroke="#4C1F19" stroke-width="1.4173" stroke-linecap="round" stroke-linejoin="round" stroke-miterlimit="10" d="
	M343.7,264.7c-7.1-0.3-10.3,1.6-13.8,6.7c-4.6,6.9,3.3,16.8,10.9,16.7c2.4,0,4.6-0.6,5.8-1.8c0.4-0.8,0.4-1,1-1.7
	c0.5-0.6,0.2-0.3,0.6-0.7c0.8-0.6,0.2-0.3,1.3-0.6l0.6-0.5c1.1-1,1.6-2,3.8-2.7c1-0.3,2.5-0.4,3.1-0.7
	C362.5,276.9,357,265.3,343.7,264.7z"/>
<text transform="matrix(1 0 0 1 487.2539 454.7482)" fill="#FFFFFF" font-family="'SimSun'" font-size="13"> </text>
</svg>
